<svg width="142" height="39" viewBox="0 0 142 39" fill="none" xmlns="http://www.w3.org/2000/svg">
<path d="M33.4333 8.46668C35.4031 8.46668 37 6.8698 37 4.90001C37 2.93019 35.4031 1.33334 33.4333 1.33334C31.4636 1.33334 29.8667 2.93019 29.8667 4.90001C29.8667 6.8698 31.4636 8.46668 33.4333 8.46668Z" fill="#7E2FFF" stroke="black" stroke-width="2.33" stroke-linejoin="round"/>
<path d="M19.1667 22.7334C21.1365 22.7334 22.7333 21.1365 22.7333 19.1667C22.7333 17.1969 21.1365 15.6 19.1667 15.6C17.1969 15.6 15.6 17.1969 15.6 19.1667C15.6 21.1365 17.1969 22.7334 19.1667 22.7334Z" fill="#7E2FFF" stroke="black" stroke-width="2.33" stroke-linejoin="round"/>
<path d="M33.4333 37C35.4031 37 37 35.4032 37 33.4334C37 31.4636 35.4031 29.8667 33.4333 29.8667C31.4636 29.8667 29.8667 31.4636 29.8667 33.4334C29.8667 35.4032 31.4636 37 33.4333 37Z" fill="#7E2FFF" stroke="black" stroke-width="2.33" stroke-linejoin="round"/>
<path d="M4.89998 8.46668C6.86976 8.46668 8.46665 6.8698 8.46665 4.90001C8.46665 2.93019 6.86976 1.33334 4.89998 1.33334C2.93016 1.33334 1.33331 2.93019 1.33331 4.90001C1.33331 6.8698 2.93016 8.46668 4.89998 8.46668Z" fill="#7E2FFF" stroke="black" stroke-width="2.33" stroke-linejoin="round"/>
<path d="M4.89998 37C6.86976 37 8.46665 35.4032 8.46665 33.4334C8.46665 31.4636 6.86976 29.8667 4.89998 29.8667C2.93016 29.8667 1.33331 31.4636 1.33331 33.4334C1.33331 35.4032 2.93016 37 4.89998 37Z" fill="#7E2FFF" stroke="black" stroke-width="2.33" stroke-linejoin="round"/>
<path d="M15.6 33.4334H22.7333Z" fill="#7E2FFF"/>
<path d="M15.6 33.4334H22.7333" stroke="black" stroke-width="2.33" stroke-linecap="round" stroke-linejoin="round"/>
<path d="M15.6 4.90002H22.7333Z" fill="#7E2FFF"/>
<path d="M15.6 4.90002H22.7333" stroke="black" stroke-width="2.33" stroke-linecap="round" stroke-linejoin="round"/>
<path d="M4.90002 15.6V22.7334Z" fill="#7E2FFF"/>
<path d="M4.90002 15.6V22.7334" stroke="black" stroke-width="2.33" stroke-linecap="round" stroke-linejoin="round"/>
<path d="M33.4333 15.6V22.7334Z" fill="#7E2FFF"/>
<path d="M33.4333 15.6V22.7334" stroke="black" stroke-width="2.33" stroke-linecap="round" stroke-linejoin="round"/>
<path d="M48.586 24.168C48.082 24.168 47.592 24.0933 47.116 23.944C46.64 23.7947 46.1967 23.58 45.786 23.3C45.3753 23.02 45.0113 22.6747 44.694 22.264C44.386 21.844 44.1433 21.3773 43.966 20.864C43.7887 20.3413 43.7 19.7673 43.7 19.142C43.7 18.5447 43.7887 17.994 43.966 17.49C44.1433 16.9767 44.386 16.524 44.694 16.132C45.002 15.74 45.3613 15.4087 45.772 15.138C46.192 14.858 46.64 14.648 47.116 14.508C47.6013 14.3587 48.096 14.284 48.6 14.284C49.0667 14.284 49.468 14.3307 49.804 14.424C50.14 14.5173 50.4153 14.62 50.63 14.732C50.8447 14.8347 50.9893 14.914 51.064 14.97C51.1947 15.0447 51.3207 15.1333 51.442 15.236C51.5633 15.3387 51.6287 15.46 51.638 15.6C51.6567 15.7027 51.6473 15.7867 51.61 15.852C51.582 15.9173 51.5447 15.9873 51.498 16.062C51.4233 16.174 51.344 16.258 51.26 16.314C51.1853 16.3607 51.1013 16.384 51.008 16.384C50.9147 16.384 50.8307 16.356 50.756 16.3C50.6813 16.244 50.5833 16.1787 50.462 16.104C50.406 16.0667 50.294 16.006 50.126 15.922C49.958 15.838 49.7433 15.7587 49.482 15.684C49.2207 15.6 48.9033 15.558 48.53 15.558C48.054 15.558 47.5967 15.6467 47.158 15.824C46.7287 15.992 46.3507 16.2347 46.024 16.552C45.6973 16.8693 45.4407 17.252 45.254 17.7C45.0673 18.148 44.974 18.652 44.974 19.212C44.974 19.7813 45.0673 20.2947 45.254 20.752C45.4407 21.2 45.6973 21.5827 46.024 21.9C46.36 22.2173 46.7427 22.46 47.172 22.628C47.6013 22.796 48.054 22.88 48.53 22.88C48.8847 22.88 49.1927 22.8427 49.454 22.768C49.7247 22.6933 49.944 22.614 50.112 22.53C50.2893 22.4367 50.4107 22.3667 50.476 22.32C50.5787 22.264 50.6673 22.208 50.742 22.152C50.826 22.096 50.9147 22.068 51.008 22.068C51.1013 22.068 51.1853 22.096 51.26 22.152C51.344 22.1987 51.4233 22.278 51.498 22.39C51.5447 22.4553 51.582 22.53 51.61 22.614C51.6473 22.6887 51.6567 22.7727 51.638 22.866C51.6287 23.006 51.5633 23.1273 51.442 23.23C51.3207 23.3233 51.1947 23.412 51.064 23.496C50.98 23.5333 50.8307 23.6127 50.616 23.734C50.4107 23.846 50.14 23.944 49.804 24.028C49.468 24.1213 49.062 24.168 48.586 24.168ZM56.2859 24.224C55.8286 24.224 55.3899 24.1353 54.9699 23.958C54.5592 23.7807 54.1906 23.538 53.8639 23.23C53.5372 22.9127 53.2806 22.544 53.0939 22.124C52.9072 21.704 52.8139 21.2467 52.8139 20.752C52.8139 20.2667 52.9026 19.8187 53.0799 19.408C53.2572 18.988 53.5046 18.6193 53.8219 18.302C54.1392 17.9847 54.5032 17.7373 54.9139 17.56C55.3339 17.3733 55.7819 17.28 56.2579 17.28C56.9019 17.28 57.4806 17.434 57.9939 17.742C58.5166 18.0407 58.9319 18.4513 59.2399 18.974C59.5479 19.4967 59.7019 20.0847 59.7019 20.738C59.7019 21.2513 59.6086 21.7227 59.4219 22.152C59.2352 22.572 58.9832 22.936 58.6659 23.244C58.3486 23.552 57.9846 23.7947 57.5739 23.972C57.1632 24.14 56.7339 24.224 56.2859 24.224ZM56.2579 23.006C56.6499 23.006 57.0139 22.908 57.3499 22.712C57.6859 22.516 57.9566 22.2453 58.1619 21.9C58.3672 21.5547 58.4699 21.1627 58.4699 20.724C58.4699 20.2853 58.3719 19.898 58.1759 19.562C57.9892 19.226 57.7279 18.9647 57.3919 18.778C57.0559 18.5913 56.6732 18.498 56.2439 18.498C55.8332 18.498 55.4599 18.596 55.1239 18.792C54.7972 18.988 54.5312 19.254 54.3259 19.59C54.1299 19.926 54.0319 20.3087 54.0319 20.738C54.0319 21.186 54.1346 21.5827 54.3399 21.928C54.5452 22.264 54.8159 22.53 55.1519 22.726C55.4972 22.9127 55.8659 23.006 56.2579 23.006ZM63.9799 24.14C63.5599 24.14 63.1585 24.056 62.7759 23.888C62.3932 23.72 62.0572 23.482 61.7679 23.174C61.4879 22.866 61.2639 22.5067 61.0959 22.096C60.9372 21.676 60.8579 21.2187 60.8579 20.724C60.8579 20.2387 60.9372 19.7907 61.0959 19.38C61.2639 18.9693 61.4879 18.6147 61.7679 18.316C62.0572 18.008 62.3932 17.77 62.7759 17.602C63.1585 17.434 63.5599 17.35 63.9799 17.35C64.4372 17.35 64.8479 17.434 65.2119 17.602C65.5852 17.77 65.9025 18.008 66.1639 18.316C66.4345 18.6147 66.6399 18.974 66.7799 19.394C66.9199 19.8047 66.9899 20.2527 66.9899 20.738C66.9992 21.2327 66.9292 21.6853 66.7799 22.096C66.6399 22.5067 66.4392 22.866 66.1779 23.174C65.9165 23.482 65.5992 23.72 65.2259 23.888C64.8619 24.056 64.4465 24.14 63.9799 24.14ZM64.1619 22.95C64.5539 22.95 64.9039 22.8567 65.2119 22.67C65.5292 22.4833 65.7765 22.2267 65.9539 21.9C66.1405 21.564 66.2339 21.1813 66.2339 20.752C66.2339 20.3133 66.1405 19.9307 65.9539 19.604C65.7765 19.268 65.5292 19.0067 65.2119 18.82C64.9039 18.6333 64.5539 18.54 64.1619 18.54C63.7699 18.54 63.4152 18.6333 63.0979 18.82C62.7805 19.0067 62.5285 19.268 62.3419 19.604C62.1645 19.9307 62.0759 20.3133 62.0759 20.752C62.0759 21.1813 62.1645 21.564 62.3419 21.9C62.5285 22.2267 62.7805 22.4833 63.0979 22.67C63.4245 22.8567 63.7792 22.95 64.1619 22.95ZM66.9059 24.14C66.7005 24.14 66.5512 24.1027 66.4579 24.028C66.3645 23.9533 66.3085 23.8273 66.2899 23.65V14.886C66.2899 14.746 66.2992 14.6293 66.3179 14.536C66.3459 14.4427 66.4019 14.3727 66.4859 14.326C66.5792 14.27 66.7145 14.242 66.8919 14.242C67.0692 14.242 67.1999 14.27 67.2839 14.326C67.3772 14.3727 67.4379 14.4427 67.4659 14.536C67.4939 14.6293 67.5079 14.7413 67.5079 14.872V23.496C67.5079 23.6267 67.4939 23.7433 67.4659 23.846C67.4379 23.9393 67.3819 24.0093 67.2979 24.056C67.2139 24.112 67.0832 24.14 66.9059 24.14ZM72.449 24.21C71.889 24.21 71.3897 24.1167 70.951 23.93C70.5123 23.7433 70.139 23.4913 69.831 23.174C69.5323 22.8473 69.3037 22.474 69.145 22.054C68.9863 21.634 68.907 21.1813 68.907 20.696C68.907 20.052 69.0563 19.478 69.355 18.974C69.6537 18.47 70.0643 18.0733 70.587 17.784C71.119 17.4853 71.7257 17.336 72.407 17.336C72.8737 17.336 73.289 17.4107 73.653 17.56C74.0263 17.7 74.3437 17.8913 74.605 18.134C74.8663 18.3767 75.067 18.6473 75.207 18.946C75.347 19.2447 75.417 19.5433 75.417 19.842C75.417 20.318 75.305 20.654 75.081 20.85C74.857 21.0367 74.5817 21.13 74.255 21.13H70.209C70.1997 21.5407 70.307 21.8953 70.531 22.194C70.7643 22.4833 71.0537 22.7073 71.399 22.866C71.7537 23.0247 72.1083 23.104 72.463 23.104C72.7243 23.104 72.9483 23.09 73.135 23.062C73.3217 23.034 73.485 22.9967 73.625 22.95C73.765 22.9033 73.8863 22.8567 73.989 22.81C74.0917 22.7633 74.1803 22.7167 74.255 22.67C74.339 22.6233 74.4183 22.5907 74.493 22.572C74.577 22.5533 74.6563 22.5627 74.731 22.6C74.815 22.628 74.8803 22.6887 74.927 22.782C74.983 22.8567 75.0203 22.9267 75.039 22.992C75.0577 23.0573 75.067 23.1273 75.067 23.202C75.067 23.3327 74.955 23.4773 74.731 23.636C74.507 23.7947 74.1943 23.93 73.793 24.042C73.401 24.154 72.953 24.21 72.449 24.21ZM70.209 20.304H73.723C73.9003 20.304 74.031 20.2807 74.115 20.234C74.2083 20.1873 74.255 20.0613 74.255 19.856C74.255 19.5947 74.1757 19.3613 74.017 19.156C73.8583 18.9413 73.639 18.7687 73.359 18.638C73.0883 18.5073 72.7757 18.442 72.421 18.442C72.0103 18.442 71.6323 18.526 71.287 18.694C70.951 18.8527 70.685 19.072 70.489 19.352C70.293 19.632 70.1997 19.9493 70.209 20.304ZM77.1115 26.002C76.9995 26.002 76.9015 25.988 76.8175 25.96C76.7335 25.9413 76.6682 25.89 76.6215 25.806C76.5842 25.722 76.5655 25.6007 76.5655 25.442C76.5655 25.274 76.5842 25.148 76.6215 25.064C76.6682 24.98 76.7289 24.924 76.8035 24.896C76.8875 24.868 76.9855 24.854 77.0975 24.854H86.1695C86.2815 24.854 86.3749 24.868 86.4495 24.896C86.5335 24.924 86.5942 24.98 86.6315 25.064C86.6782 25.148 86.7015 25.274 86.7015 25.442C86.7015 25.6007 86.6782 25.722 86.6315 25.806C86.5849 25.89 86.5195 25.9413 86.4355 25.96C86.3515 25.988 86.2535 26.002 86.1415 26.002H77.1115ZM91.0909 24.28C90.7362 24.28 90.4002 24.238 90.0829 24.154C89.7749 24.07 89.4902 23.958 89.2289 23.818C88.9769 23.6687 88.7529 23.5053 88.5569 23.328C88.3609 23.1507 88.2069 22.9733 88.0949 22.796C87.9922 22.6467 87.9269 22.5253 87.8989 22.432C87.8709 22.3293 87.8755 22.2313 87.9129 22.138C87.9595 22.0447 88.0482 21.942 88.1789 21.83C88.3282 21.718 88.4589 21.6667 88.5709 21.676C88.6829 21.676 88.7855 21.718 88.8789 21.802C88.9815 21.886 89.0842 21.998 89.1869 22.138C89.4202 22.4553 89.7049 22.6887 90.0409 22.838C90.3769 22.978 90.7082 23.048 91.0349 23.048C91.4549 23.048 91.8282 22.992 92.1549 22.88C92.4815 22.768 92.7382 22.6 92.9249 22.376C93.1209 22.1427 93.2189 21.844 93.2189 21.48C93.2189 21.1813 93.1442 20.9293 92.9949 20.724C92.8455 20.5187 92.6449 20.346 92.3929 20.206C92.1409 20.0567 91.8609 19.9307 91.5529 19.828C91.2449 19.716 90.9322 19.6087 90.6149 19.506C90.3629 19.422 90.1155 19.3287 89.8729 19.226C89.6302 19.114 89.4015 18.9927 89.1869 18.862C88.9722 18.722 88.7809 18.5587 88.6129 18.372C88.4542 18.1853 88.3282 17.966 88.2349 17.714C88.1509 17.462 88.1089 17.168 88.1089 16.832C88.1089 16.3187 88.2302 15.866 88.4729 15.474C88.7249 15.082 89.0749 14.7787 89.5229 14.564C89.9709 14.34 90.4889 14.228 91.0769 14.228C91.4222 14.228 91.7395 14.2607 92.0289 14.326C92.3182 14.3913 92.5749 14.48 92.7989 14.592C93.0229 14.6947 93.2142 14.8067 93.3729 14.928C93.5315 15.04 93.6529 15.1473 93.7369 15.25C93.9049 15.4273 93.9982 15.5767 94.0169 15.698C94.0355 15.8193 93.9655 15.9687 93.8069 16.146C93.6575 16.314 93.5129 16.4027 93.3729 16.412C93.2329 16.4213 93.0789 16.356 92.9109 16.216C92.7335 16.0107 92.5469 15.852 92.3509 15.74C92.1642 15.628 91.9635 15.5533 91.7489 15.516C91.5435 15.4693 91.3149 15.446 91.0629 15.446C90.8202 15.446 90.5915 15.4787 90.3769 15.544C90.1715 15.6 89.9895 15.6887 89.8309 15.81C89.6815 15.9313 89.5649 16.0807 89.4809 16.258C89.3969 16.426 89.3549 16.622 89.3549 16.846C89.3549 17.098 89.4202 17.3127 89.5509 17.49C89.6909 17.6673 89.8729 17.8213 90.0969 17.952C90.3209 18.0733 90.5729 18.1853 90.8529 18.288C91.1329 18.3813 91.4269 18.4747 91.7349 18.568C92.0709 18.6707 92.4022 18.7967 92.7289 18.946C93.0555 19.086 93.3495 19.2633 93.6109 19.478C93.8722 19.6833 94.0822 19.9447 94.2409 20.262C94.3995 20.5793 94.4789 20.9713 94.4789 21.438C94.4789 21.9047 94.3855 22.3153 94.1989 22.67C94.0215 23.0247 93.7742 23.3233 93.4569 23.566C93.1395 23.7993 92.7755 23.9767 92.3649 24.098C91.9635 24.2193 91.5389 24.28 91.0909 24.28ZM96.5468 24.126C96.3695 24.126 96.2342 24.098 96.1408 24.042C96.0568 23.9953 96.0008 23.9253 95.9728 23.832C95.9542 23.7387 95.9448 23.6267 95.9448 23.496V17.938C95.9448 17.8167 95.9588 17.714 95.9868 17.63C96.0148 17.546 96.0708 17.4807 96.1548 17.434C96.2482 17.3873 96.3835 17.364 96.5608 17.364C96.7008 17.364 96.8082 17.3827 96.8828 17.42C96.9668 17.448 97.0228 17.49 97.0508 17.546C97.0882 17.602 97.1115 17.6627 97.1208 17.728C97.1302 17.7933 97.1348 17.854 97.1348 17.91L97.1068 18.554C97.2002 18.3953 97.3168 18.246 97.4568 18.106C97.5968 17.9567 97.7602 17.826 97.9468 17.714C98.1335 17.5927 98.3342 17.4993 98.5488 17.434C98.7728 17.3687 99.0108 17.336 99.2628 17.336C99.6735 17.336 100.051 17.4107 100.397 17.56C100.742 17.7 101.036 17.91 101.279 18.19C101.531 18.4607 101.722 18.7873 101.853 19.17C101.993 19.5527 102.063 19.9867 102.063 20.472V23.51C102.063 23.6407 102.049 23.7527 102.021 23.846C102.002 23.9393 101.946 24.0093 101.853 24.056C101.769 24.1027 101.638 24.126 101.461 24.126C101.274 24.126 101.134 24.098 101.041 24.042C100.957 23.9953 100.901 23.9253 100.873 23.832C100.845 23.7387 100.831 23.6267 100.831 23.496V20.458C100.831 20.066 100.765 19.7253 100.635 19.436C100.504 19.1467 100.308 18.9227 100.047 18.764C99.7855 18.596 99.4542 18.512 99.0528 18.512C98.6702 18.512 98.3342 18.596 98.0448 18.764C97.7648 18.9227 97.5455 19.1467 97.3868 19.436C97.2375 19.7253 97.1628 20.066 97.1628 20.458V23.51C97.1628 23.6407 97.1488 23.7527 97.1208 23.846C97.0928 23.9393 97.0322 24.0093 96.9388 24.056C96.8548 24.1027 96.7242 24.126 96.5468 24.126ZM104.41 24.14C104.232 24.14 104.097 24.112 104.004 24.056C103.92 24.0093 103.864 23.9393 103.836 23.846C103.808 23.7527 103.794 23.6407 103.794 23.51V17.98C103.794 17.8493 103.808 17.7373 103.836 17.644C103.864 17.5507 103.92 17.4807 104.004 17.434C104.097 17.3873 104.237 17.364 104.424 17.364C104.601 17.364 104.732 17.392 104.816 17.448C104.9 17.4947 104.956 17.5647 104.984 17.658C105.012 17.7513 105.026 17.868 105.026 18.008V23.524C105.026 23.6547 105.012 23.7667 104.984 23.86C104.956 23.9533 104.895 24.0233 104.802 24.07C104.718 24.1167 104.587 24.14 104.41 24.14ZM104.41 15.684C104.204 15.684 104.05 15.656 103.948 15.6C103.845 15.5347 103.775 15.446 103.738 15.334C103.71 15.222 103.696 15.0913 103.696 14.942C103.696 14.7927 103.714 14.6667 103.752 14.564C103.789 14.452 103.859 14.3727 103.962 14.326C104.064 14.27 104.218 14.242 104.424 14.242C104.62 14.242 104.769 14.27 104.872 14.326C104.974 14.382 105.04 14.466 105.068 14.578C105.105 14.69 105.124 14.8207 105.124 14.97C105.124 15.1193 105.105 15.25 105.068 15.362C105.04 15.4647 104.974 15.544 104.872 15.6C104.769 15.656 104.615 15.684 104.41 15.684ZM110.285 24.084C109.827 24.084 109.412 24 109.039 23.832C108.665 23.664 108.348 23.4307 108.087 23.132C107.825 22.824 107.62 22.4647 107.471 22.054C107.331 21.6433 107.265 21.1907 107.275 20.696C107.275 20.2107 107.345 19.7627 107.485 19.352C107.625 18.9413 107.825 18.5867 108.087 18.288C108.357 17.98 108.675 17.7467 109.039 17.588C109.412 17.42 109.827 17.336 110.285 17.336C110.714 17.336 111.115 17.42 111.489 17.588C111.871 17.756 112.203 17.994 112.483 18.302C112.772 18.6007 112.996 18.96 113.155 19.38C113.323 19.8 113.407 20.2527 113.407 20.738C113.407 21.2233 113.323 21.6713 113.155 22.082C112.996 22.4927 112.772 22.8473 112.483 23.146C112.203 23.4447 111.871 23.678 111.489 23.846C111.115 24.0047 110.714 24.084 110.285 24.084ZM107.373 26.898C107.195 26.898 107.06 26.87 106.967 26.814C106.883 26.7673 106.822 26.6973 106.785 26.604C106.757 26.5107 106.743 26.3987 106.743 26.268V17.994C106.743 17.8633 106.757 17.7513 106.785 17.658C106.813 17.5647 106.869 17.4947 106.953 17.448C107.046 17.392 107.181 17.364 107.359 17.364C107.564 17.364 107.713 17.3967 107.807 17.462C107.909 17.5273 107.97 17.644 107.989 17.812V26.254C107.998 26.3847 107.989 26.4967 107.961 26.59C107.933 26.6927 107.872 26.7673 107.779 26.814C107.695 26.87 107.559 26.898 107.373 26.898ZM110.103 22.936C110.495 22.936 110.849 22.8427 111.167 22.656C111.484 22.46 111.731 22.194 111.909 21.858C112.095 21.522 112.189 21.1393 112.189 20.71C112.189 20.2713 112.095 19.8887 111.909 19.562C111.731 19.2353 111.484 18.9833 111.167 18.806C110.859 18.6193 110.504 18.526 110.103 18.526C109.711 18.526 109.356 18.6193 109.039 18.806C108.731 18.9927 108.483 19.2493 108.297 19.576C108.119 19.9027 108.031 20.2807 108.031 20.71C108.031 21.1393 108.119 21.522 108.297 21.858C108.483 22.194 108.731 22.46 109.039 22.656C109.356 22.8427 109.711 22.936 110.103 22.936ZM118.324 24.084C117.866 24.084 117.451 24 117.078 23.832C116.704 23.664 116.387 23.4307 116.126 23.132C115.864 22.824 115.659 22.4647 115.51 22.054C115.37 21.6433 115.304 21.1907 115.314 20.696C115.314 20.2107 115.384 19.7627 115.524 19.352C115.664 18.9413 115.864 18.5867 116.126 18.288C116.396 17.98 116.714 17.7467 117.078 17.588C117.451 17.42 117.866 17.336 118.324 17.336C118.753 17.336 119.154 17.42 119.528 17.588C119.91 17.756 120.242 17.994 120.522 18.302C120.811 18.6007 121.035 18.96 121.194 19.38C121.362 19.8 121.446 20.2527 121.446 20.738C121.446 21.2233 121.362 21.6713 121.194 22.082C121.035 22.4927 120.811 22.8473 120.522 23.146C120.242 23.4447 119.91 23.678 119.528 23.846C119.154 24.0047 118.753 24.084 118.324 24.084ZM115.412 26.898C115.234 26.898 115.099 26.87 115.006 26.814C114.922 26.7673 114.861 26.6973 114.824 26.604C114.796 26.5107 114.782 26.3987 114.782 26.268V17.994C114.782 17.8633 114.796 17.7513 114.824 17.658C114.852 17.5647 114.908 17.4947 114.992 17.448C115.085 17.392 115.22 17.364 115.398 17.364C115.603 17.364 115.752 17.3967 115.846 17.462C115.948 17.5273 116.009 17.644 116.028 17.812V26.254C116.037 26.3847 116.028 26.4967 116 26.59C115.972 26.6927 115.911 26.7673 115.818 26.814C115.734 26.87 115.598 26.898 115.412 26.898ZM118.142 22.936C118.534 22.936 118.888 22.8427 119.206 22.656C119.523 22.46 119.77 22.194 119.948 21.858C120.134 21.522 120.228 21.1393 120.228 20.71C120.228 20.2713 120.134 19.8887 119.948 19.562C119.77 19.2353 119.523 18.9833 119.206 18.806C118.898 18.6193 118.543 18.526 118.142 18.526C117.75 18.526 117.395 18.6193 117.078 18.806C116.77 18.9927 116.522 19.2493 116.336 19.576C116.158 19.9027 116.07 20.2807 116.07 20.71C116.07 21.1393 116.158 21.522 116.336 21.858C116.522 22.194 116.77 22.46 117.078 22.656C117.395 22.8427 117.75 22.936 118.142 22.936ZM126.125 24.21C125.565 24.21 125.065 24.1167 124.627 23.93C124.188 23.7433 123.815 23.4913 123.507 23.174C123.208 22.8473 122.979 22.474 122.821 22.054C122.662 21.634 122.583 21.1813 122.583 20.696C122.583 20.052 122.732 19.478 123.031 18.974C123.329 18.47 123.74 18.0733 124.263 17.784C124.795 17.4853 125.401 17.336 126.083 17.336C126.549 17.336 126.965 17.4107 127.329 17.56C127.702 17.7 128.019 17.8913 128.281 18.134C128.542 18.3767 128.743 18.6473 128.883 18.946C129.023 19.2447 129.093 19.5433 129.093 19.842C129.093 20.318 128.981 20.654 128.757 20.85C128.533 21.0367 128.257 21.13 127.931 21.13H123.885C123.875 21.5407 123.983 21.8953 124.207 22.194C124.44 22.4833 124.729 22.7073 125.075 22.866C125.429 23.0247 125.784 23.104 126.139 23.104C126.4 23.104 126.624 23.09 126.811 23.062C126.997 23.034 127.161 22.9967 127.301 22.95C127.441 22.9033 127.562 22.8567 127.665 22.81C127.767 22.7633 127.856 22.7167 127.931 22.67C128.015 22.6233 128.094 22.5907 128.169 22.572C128.253 22.5533 128.332 22.5627 128.407 22.6C128.491 22.628 128.556 22.6887 128.603 22.782C128.659 22.8567 128.696 22.9267 128.715 22.992C128.733 23.0573 128.743 23.1273 128.743 23.202C128.743 23.3327 128.631 23.4773 128.407 23.636C128.183 23.7947 127.87 23.93 127.469 24.042C127.077 24.154 126.629 24.21 126.125 24.21ZM123.885 20.304H127.399C127.576 20.304 127.707 20.2807 127.791 20.234C127.884 20.1873 127.931 20.0613 127.931 19.856C127.931 19.5947 127.851 19.3613 127.693 19.156C127.534 18.9413 127.315 18.7687 127.035 18.638C126.764 18.5073 126.451 18.442 126.097 18.442C125.686 18.442 125.308 18.526 124.963 18.694C124.627 18.8527 124.361 19.072 124.165 19.352C123.969 19.632 123.875 19.9493 123.885 20.304ZM133.549 24.14C133.11 24.14 132.737 24.098 132.429 24.014C132.13 23.93 131.883 23.7993 131.687 23.622C131.491 23.4447 131.351 23.216 131.267 22.936C131.183 22.6467 131.141 22.292 131.141 21.872V15.684C131.141 15.5533 131.155 15.4413 131.183 15.348C131.211 15.2547 131.267 15.1847 131.351 15.138C131.435 15.082 131.565 15.054 131.743 15.054C131.92 15.054 132.055 15.082 132.149 15.138C132.242 15.1847 132.303 15.2547 132.331 15.348C132.359 15.432 132.373 15.5393 132.373 15.67V21.872C132.373 22.1147 132.391 22.3107 132.429 22.46C132.475 22.6 132.541 22.7073 132.625 22.782C132.718 22.8567 132.839 22.9033 132.989 22.922C133.138 22.9407 133.32 22.95 133.535 22.95C133.684 22.95 133.805 22.964 133.899 22.992C133.992 23.02 134.062 23.076 134.109 23.16C134.155 23.244 134.179 23.37 134.179 23.538C134.179 23.7153 134.151 23.8507 134.095 23.944C134.048 24.028 133.973 24.0793 133.871 24.098C133.777 24.126 133.67 24.14 133.549 24.14ZM130.413 17.518L131.757 17.532L133.703 17.504C133.833 17.504 133.945 17.518 134.039 17.546C134.132 17.5647 134.202 17.6207 134.249 17.714C134.305 17.798 134.333 17.9287 134.333 18.106C134.333 18.2833 134.309 18.4187 134.263 18.512C134.216 18.596 134.146 18.652 134.053 18.68C133.959 18.708 133.847 18.722 133.717 18.722L131.799 18.694L130.385 18.708C130.189 18.708 130.053 18.6613 129.979 18.568C129.913 18.4747 129.881 18.3207 129.881 18.106C129.881 17.9007 129.923 17.7513 130.007 17.658C130.091 17.5647 130.226 17.518 130.413 17.518ZM137.874 24.21C137.65 24.21 137.417 24.1867 137.174 24.14C136.932 24.0933 136.694 24.028 136.46 23.944C136.236 23.8507 136.036 23.7433 135.858 23.622C135.69 23.5007 135.564 23.3653 135.48 23.216C135.434 23.1227 135.406 23.0387 135.396 22.964C135.387 22.88 135.401 22.8007 135.438 22.726C135.476 22.6513 135.532 22.5767 135.606 22.502C135.7 22.39 135.793 22.3387 135.886 22.348C135.98 22.348 136.096 22.4087 136.236 22.53C136.339 22.5953 136.46 22.67 136.6 22.754C136.74 22.8287 136.885 22.8987 137.034 22.964C137.184 23.02 137.333 23.0713 137.482 23.118C137.641 23.1553 137.795 23.174 137.944 23.174C138.374 23.174 138.719 23.0947 138.98 22.936C139.242 22.768 139.372 22.5487 139.372 22.278C139.372 22.1193 139.34 21.984 139.274 21.872C139.209 21.76 139.12 21.6667 139.008 21.592C138.896 21.508 138.77 21.438 138.63 21.382C138.49 21.326 138.332 21.2747 138.154 21.228C137.986 21.172 137.818 21.1207 137.65 21.074C137.398 21.0087 137.151 20.934 136.908 20.85C136.666 20.766 136.446 20.6587 136.25 20.528C136.054 20.388 135.896 20.2153 135.774 20.01C135.653 19.7953 135.592 19.5247 135.592 19.198C135.592 18.8153 135.69 18.484 135.886 18.204C136.082 17.924 136.358 17.7093 136.712 17.56C137.067 17.4013 137.482 17.322 137.958 17.322C138.164 17.322 138.355 17.336 138.532 17.364C138.71 17.392 138.878 17.4387 139.036 17.504C139.204 17.56 139.363 17.63 139.512 17.714C139.662 17.7887 139.806 17.882 139.946 17.994C140.114 18.106 140.203 18.2273 140.212 18.358C140.222 18.4887 140.17 18.624 140.058 18.764C139.974 18.8853 139.881 18.9647 139.778 19.002C139.676 19.03 139.573 19.002 139.47 18.918C139.321 18.806 139.162 18.708 138.994 18.624C138.826 18.54 138.654 18.47 138.476 18.414C138.299 18.358 138.117 18.33 137.93 18.33C137.697 18.33 137.487 18.3673 137.3 18.442C137.123 18.5073 136.983 18.61 136.88 18.75C136.787 18.8807 136.74 19.03 136.74 19.198C136.74 19.3473 136.778 19.4687 136.852 19.562C136.936 19.6553 137.039 19.7347 137.16 19.8C137.291 19.8653 137.44 19.926 137.608 19.982C137.786 20.0287 137.968 20.0753 138.154 20.122C138.425 20.1873 138.7 20.2667 138.98 20.36C139.27 20.444 139.526 20.5607 139.75 20.71C139.984 20.85 140.17 21.0413 140.31 21.284C140.46 21.5173 140.534 21.83 140.534 22.222C140.534 22.838 140.292 23.3233 139.806 23.678C139.321 24.0327 138.677 24.21 137.874 24.21Z" fill="black"/>
</svg>
