<svg width="120" height="25" viewBox="0 0 120 25" fill="none" xmlns="http://www.w3.org/2000/svg">
<path d="M21.403 5.534C22.655 5.534 23.67 4.51901 23.67 3.267C23.67 2.01497 22.655 1 21.403 1C20.151 1 19.136 2.01497 19.136 3.267C19.136 4.51901 20.151 5.534 21.403 5.534Z" fill="#7E2FFF" stroke="white" stroke-width="1.33" stroke-linejoin="round"/>
<path d="M12.335 14.602C13.587 14.602 14.602 13.587 14.602 12.335C14.602 11.083 13.587 10.068 12.335 10.068C11.083 10.068 10.068 11.083 10.068 12.335C10.068 13.587 11.083 14.602 12.335 14.602Z" fill="#7E2FFF" stroke="white" stroke-width="1.33" stroke-linejoin="round"/>
<path d="M21.403 23.67C22.655 23.67 23.67 22.655 23.67 21.403C23.67 20.151 22.655 19.136 21.403 19.136C20.151 19.136 19.136 20.151 19.136 21.403C19.136 22.655 20.151 23.67 21.403 23.67Z" fill="#7E2FFF" stroke="white" stroke-width="1.33" stroke-linejoin="round"/>
<path d="M3.267 5.534C4.51901 5.534 5.534 4.51901 5.534 3.267C5.534 2.01497 4.51901 1 3.267 1C2.01497 1 1 2.01497 1 3.267C1 4.51901 2.01497 5.534 3.267 5.534Z" fill="#7E2FFF" stroke="white" stroke-width="1.33" stroke-linejoin="round"/>
<path d="M3.267 23.67C4.51901 23.67 5.534 22.655 5.534 21.403C5.534 20.151 4.51901 19.136 3.267 19.136C2.01497 19.136 1 20.151 1 21.403C1 22.655 2.01497 23.67 3.267 23.67Z" fill="#7E2FFF" stroke="white" stroke-width="1.33" stroke-linejoin="round"/>
<path d="M10.068 21.403H14.602H10.068Z" fill="#7E2FFF"/>
<path d="M10.068 21.403H14.602" stroke="white" stroke-width="1.33" stroke-linecap="round" stroke-linejoin="round"/>
<path d="M10.068 3.267H14.602H10.068Z" fill="#7E2FFF"/>
<path d="M10.068 3.267H14.602" stroke="white" stroke-width="1.33" stroke-linecap="round" stroke-linejoin="round"/>
<path d="M3.26703 10.068V14.602V10.068Z" fill="#7E2FFF"/>
<path d="M3.26703 10.068V14.602" stroke="white" stroke-width="1.33" stroke-linecap="round" stroke-linejoin="round"/>
<path d="M21.403 10.068V14.602V10.068Z" fill="#7E2FFF"/>
<path d="M21.403 10.068V14.602" stroke="white" stroke-width="1.33" stroke-linecap="round" stroke-linejoin="round"/>
<path d="M34.096 17.182C33.6713 17.182 33.2423 17.1213 32.809 17C32.3757 16.87 31.9597 16.6793 31.561 16.428C31.1623 16.168 30.807 15.8517 30.495 15.479C30.1917 15.0977 29.949 14.66 29.767 14.166C29.585 13.6633 29.494 13.1087 29.494 12.502C29.494 11.904 29.585 11.3667 29.767 10.89C29.949 10.4047 30.1917 9.98 30.495 9.616C30.807 9.252 31.158 8.94867 31.548 8.706C31.9467 8.46333 32.3627 8.28133 32.796 8.16C33.238 8.03 33.6757 7.96067 34.109 7.952C34.551 7.952 34.9323 7.99967 35.253 8.095C35.5737 8.19033 35.8337 8.29433 36.033 8.407C36.2323 8.511 36.3667 8.58467 36.436 8.628C36.5747 8.71467 36.7047 8.81433 36.826 8.927C36.956 9.031 37.0253 9.161 37.034 9.317C37.0427 9.421 37.0297 9.51633 36.995 9.603C36.9603 9.681 36.9127 9.76333 36.852 9.85C36.748 9.99733 36.644 10.1057 36.54 10.175C36.436 10.2443 36.332 10.279 36.228 10.279C36.1327 10.279 36.0417 10.253 35.955 10.201C35.877 10.149 35.7773 10.084 35.656 10.006C35.604 9.97133 35.5087 9.91933 35.37 9.85C35.24 9.772 35.0623 9.70267 34.837 9.642C34.6203 9.58133 34.356 9.551 34.044 9.551C33.6713 9.551 33.3073 9.616 32.952 9.746C32.5967 9.876 32.276 10.071 31.99 10.331C31.7127 10.5823 31.4917 10.8987 31.327 11.28C31.1623 11.6527 31.08 12.0817 31.08 12.567C31.08 13.0523 31.1623 13.4857 31.327 13.867C31.4917 14.2397 31.7127 14.556 31.99 14.816C32.276 15.0673 32.5967 15.258 32.952 15.388C33.3073 15.518 33.6713 15.583 34.044 15.583C34.3387 15.583 34.59 15.557 34.798 15.505C35.0147 15.4443 35.1967 15.375 35.344 15.297C35.5 15.2103 35.617 15.1453 35.695 15.102C35.7903 15.0413 35.8813 14.985 35.968 14.933C36.0547 14.881 36.1457 14.855 36.241 14.855C36.345 14.855 36.4447 14.8897 36.54 14.959C36.644 15.0283 36.7437 15.141 36.839 15.297C36.8997 15.3923 36.9473 15.4833 36.982 15.57C37.0167 15.6567 37.0297 15.7477 37.021 15.843C37.0123 15.999 36.943 16.1333 36.813 16.246C36.6917 16.35 36.5617 16.441 36.423 16.519C36.3537 16.5623 36.2193 16.6403 36.02 16.753C35.8293 16.857 35.5737 16.9523 35.253 17.039C34.9323 17.1343 34.5467 17.182 34.096 17.182ZM41.1846 17.208C40.7686 17.208 40.3612 17.13 39.9626 16.974C39.5726 16.8093 39.2172 16.5797 38.8966 16.285C38.5846 15.9903 38.3332 15.6437 38.1426 15.245C37.9606 14.8463 37.8696 14.4087 37.8696 13.932C37.8696 13.4727 37.9562 13.0437 38.1296 12.645C38.3029 12.2463 38.5412 11.8953 38.8446 11.592C39.1479 11.2887 39.4946 11.0547 39.8846 10.89C40.2832 10.7167 40.7079 10.63 41.1586 10.63C41.7652 10.63 42.3156 10.7773 42.8096 11.072C43.3036 11.358 43.6979 11.748 43.9926 12.242C44.2872 12.736 44.4346 13.295 44.4346 13.919C44.4346 14.413 44.3436 14.8637 44.1616 15.271C43.9796 15.6697 43.7326 16.0163 43.4206 16.311C43.1086 16.597 42.7576 16.818 42.3676 16.974C41.9862 17.13 41.5919 17.208 41.1846 17.208ZM41.1586 15.674C41.4446 15.674 41.7176 15.6047 41.9776 15.466C42.2462 15.3187 42.4629 15.1107 42.6276 14.842C42.8009 14.5733 42.8876 14.257 42.8876 13.893C42.8876 13.555 42.8096 13.256 42.6536 12.996C42.5062 12.736 42.3026 12.5323 42.0426 12.385C41.7826 12.2377 41.4836 12.164 41.1456 12.164C40.8249 12.164 40.5346 12.242 40.2746 12.398C40.0146 12.5453 39.8066 12.7533 39.6506 13.022C39.5032 13.282 39.4296 13.5767 39.4296 13.906C39.4296 14.27 39.5119 14.5863 39.6766 14.855C39.8412 15.115 40.0536 15.3187 40.3136 15.466C40.5822 15.6047 40.8639 15.674 41.1586 15.674ZM48.2123 17.117C47.8136 17.117 47.4366 17.0347 47.0813 16.87C46.7259 16.7053 46.4139 16.48 46.1453 16.194C45.8766 15.8993 45.6643 15.557 45.5083 15.167C45.3523 14.7683 45.2743 14.3437 45.2743 13.893C45.2743 13.4597 45.3523 13.0523 45.5083 12.671C45.6643 12.281 45.8766 11.943 46.1453 11.657C46.4226 11.3623 46.7389 11.1327 47.0943 10.968C47.4496 10.8033 47.8223 10.721 48.2123 10.721C48.6283 10.721 49.0009 10.8033 49.3303 10.968C49.6596 11.1327 49.9369 11.3623 50.1623 11.657C50.3963 11.943 50.5739 12.281 50.6953 12.671C50.8166 13.0523 50.8816 13.464 50.8903 13.906C50.8903 14.348 50.8296 14.764 50.7083 15.154C50.5956 15.5353 50.4223 15.8733 50.1883 16.168C49.9629 16.4627 49.6813 16.6967 49.3433 16.87C49.0139 17.0347 48.6369 17.117 48.2123 17.117ZM48.4203 15.596C48.7236 15.596 48.9923 15.5267 49.2263 15.388C49.4689 15.2407 49.6596 15.0413 49.7983 14.79C49.9456 14.5387 50.0193 14.2527 50.0193 13.932C50.0193 13.6027 49.9456 13.3123 49.7983 13.061C49.6596 12.8097 49.4689 12.6103 49.2263 12.463C48.9923 12.3157 48.7236 12.242 48.4203 12.242C48.1169 12.242 47.8439 12.3157 47.6013 12.463C47.3586 12.6017 47.1636 12.801 47.0163 13.061C46.8776 13.3123 46.8083 13.6027 46.8083 13.932C46.8083 14.2527 46.8776 14.5387 47.0163 14.79C47.1636 15.0413 47.3586 15.2407 47.6013 15.388C47.8526 15.5267 48.1256 15.596 48.4203 15.596ZM50.8253 17.117C50.5826 17.117 50.4049 17.078 50.2923 17C50.1796 16.9133 50.1059 16.779 50.0713 16.597V8.589C50.0713 8.44167 50.0799 8.31167 50.0973 8.199C50.1233 8.07767 50.1883 7.98233 50.2923 7.913C50.4049 7.835 50.5783 7.796 50.8123 7.796C51.0636 7.796 51.2413 7.83067 51.3453 7.9C51.4493 7.96933 51.5143 8.06467 51.5403 8.186C51.5749 8.29867 51.5923 8.42867 51.5923 8.576V16.324C51.5923 16.4713 51.5793 16.6057 51.5533 16.727C51.5273 16.8483 51.4579 16.9437 51.3453 17.013C51.2413 17.0823 51.0679 17.117 50.8253 17.117ZM56.0278 17.208C55.4645 17.208 54.9705 17.117 54.5458 16.935C54.1298 16.753 53.7788 16.506 53.4928 16.194C53.2155 15.8733 53.0031 15.518 52.8558 15.128C52.7171 14.7293 52.6478 14.3177 52.6478 13.893C52.6478 13.269 52.7908 12.7143 53.0768 12.229C53.3628 11.7437 53.7571 11.3623 54.2598 11.085C54.7711 10.8077 55.3561 10.669 56.0148 10.669C56.4828 10.669 56.8945 10.7427 57.2498 10.89C57.6051 11.0373 57.8998 11.2323 58.1338 11.475C58.3765 11.709 58.5585 11.969 58.6798 12.255C58.8098 12.541 58.8748 12.8183 58.8748 13.087C58.8748 13.5463 58.7621 13.88 58.5368 14.088C58.3201 14.296 58.0471 14.4 57.7178 14.4H54.2858C54.2945 14.6947 54.3855 14.9503 54.5588 15.167C54.7408 15.3837 54.9661 15.5527 55.2348 15.674C55.5121 15.7867 55.7938 15.843 56.0798 15.843C56.2965 15.843 56.4871 15.83 56.6518 15.804C56.8251 15.778 56.9725 15.7477 57.0938 15.713C57.2151 15.6697 57.3191 15.6263 57.4058 15.583C57.5011 15.5397 57.5878 15.5007 57.6658 15.466C57.7438 15.4313 57.8175 15.4097 57.8868 15.401C57.9821 15.3923 58.0775 15.414 58.1728 15.466C58.2681 15.518 58.3461 15.609 58.4068 15.739C58.4588 15.8257 58.4935 15.908 58.5108 15.986C58.5368 16.0553 58.5498 16.1247 58.5498 16.194C58.5498 16.3673 58.4458 16.532 58.2378 16.688C58.0298 16.8353 57.7351 16.9567 57.3538 17.052C56.9811 17.156 56.5391 17.208 56.0278 17.208ZM54.2858 13.477H56.9508C57.0981 13.477 57.2108 13.4553 57.2888 13.412C57.3668 13.36 57.4058 13.256 57.4058 13.1C57.4058 12.9007 57.3451 12.723 57.2238 12.567C57.1025 12.4023 56.9378 12.2767 56.7298 12.19C56.5218 12.0947 56.2791 12.047 56.0018 12.047C55.6811 12.047 55.3908 12.112 55.1308 12.242C54.8708 12.3633 54.6628 12.5323 54.5068 12.749C54.3595 12.9657 54.2858 13.2083 54.2858 13.477ZM60.3056 19.197C60.193 19.197 60.089 19.184 59.9936 19.158C59.8983 19.132 59.8203 19.0713 59.7596 18.976C59.7076 18.8807 59.6816 18.7333 59.6816 18.534C59.6816 18.3173 59.7076 18.1613 59.7596 18.066C59.8203 17.9707 59.8983 17.91 59.9936 17.884C60.089 17.858 60.1886 17.845 60.2926 17.845H68.6256C68.7383 17.845 68.8423 17.858 68.9376 17.884C69.033 17.91 69.1066 17.9707 69.1586 18.066C69.2106 18.1613 69.2366 18.3173 69.2366 18.534C69.2366 18.742 69.2063 18.8893 69.1456 18.976C69.0936 19.0713 69.02 19.132 68.9246 19.158C68.8293 19.184 68.7253 19.197 68.6126 19.197H60.3056ZM73.148 17.247C72.758 17.247 72.4027 17.1993 72.082 17.104C71.77 17.0087 71.4927 16.8873 71.25 16.74C71.016 16.5927 70.8167 16.441 70.652 16.285C70.4873 16.129 70.366 15.986 70.288 15.856C70.1753 15.7 70.1017 15.5613 70.067 15.44C70.0323 15.3187 70.041 15.2017 70.093 15.089C70.1537 14.9677 70.262 14.842 70.418 14.712C70.574 14.5733 70.717 14.504 70.847 14.504C70.9857 14.4953 71.1157 14.5343 71.237 14.621C71.367 14.7077 71.4927 14.829 71.614 14.985C71.822 15.2623 72.056 15.4617 72.316 15.583C72.576 15.6957 72.836 15.752 73.096 15.752C73.434 15.752 73.7287 15.7087 73.98 15.622C74.2313 15.5267 74.4263 15.388 74.565 15.206C74.7123 15.024 74.786 14.79 74.786 14.504C74.786 14.27 74.7123 14.0793 74.565 13.932C74.4263 13.776 74.24 13.646 74.006 13.542C73.772 13.4293 73.5077 13.3297 73.213 13.243C72.927 13.1477 72.6367 13.0437 72.342 12.931C72.134 12.8617 71.926 12.7793 71.718 12.684C71.51 12.58 71.315 12.463 71.133 12.333C70.9597 12.203 70.8037 12.0513 70.665 11.878C70.535 11.696 70.431 11.488 70.353 11.254C70.275 11.02 70.236 10.747 70.236 10.435C70.236 9.941 70.3573 9.50767 70.6 9.135C70.8427 8.75367 71.1807 8.45467 71.614 8.238C72.0473 8.01267 72.5413 7.9 73.096 7.9C73.4513 7.9 73.7677 7.93467 74.045 8.004C74.331 8.06467 74.5737 8.147 74.773 8.251C74.981 8.34633 75.15 8.446 75.28 8.55C75.4187 8.64533 75.5183 8.72767 75.579 8.797C75.7783 8.99633 75.8867 9.16533 75.904 9.304C75.93 9.434 75.852 9.61167 75.67 9.837C75.488 10.071 75.3103 10.201 75.137 10.227C74.9723 10.2443 74.786 10.175 74.578 10.019C74.4393 9.87167 74.3007 9.75467 74.162 9.668C74.0233 9.57267 73.8673 9.50333 73.694 9.46C73.5293 9.41667 73.3257 9.395 73.083 9.395C72.9097 9.395 72.7407 9.421 72.576 9.473C72.42 9.51633 72.2857 9.58567 72.173 9.681C72.0603 9.76767 71.9693 9.876 71.9 10.006C71.8393 10.136 71.809 10.2833 71.809 10.448C71.809 10.6733 71.8697 10.8597 71.991 11.007C72.121 11.1457 72.2943 11.2627 72.511 11.358C72.7277 11.4447 72.9703 11.527 73.239 11.605C73.5077 11.683 73.7807 11.7653 74.058 11.852C74.344 11.9473 74.6257 12.06 74.903 12.19C75.1803 12.32 75.4273 12.4847 75.644 12.684C75.8607 12.8747 76.034 13.1173 76.164 13.412C76.294 13.698 76.359 14.049 76.359 14.465C76.359 14.9417 76.268 15.3577 76.086 15.713C75.904 16.0683 75.657 16.3587 75.345 16.584C75.033 16.8093 74.6863 16.974 74.305 17.078C73.9237 17.1907 73.538 17.247 73.148 17.247ZM78.2155 17.117C77.9815 17.117 77.8081 17.078 77.6955 17C77.5915 16.9307 77.5265 16.8397 77.5005 16.727C77.4745 16.6057 77.4615 16.4713 77.4615 16.324V11.462C77.4615 11.3233 77.4745 11.1977 77.5005 11.085C77.5265 10.9723 77.5958 10.8857 77.7085 10.825C77.8211 10.7557 77.9945 10.721 78.2285 10.721C78.4365 10.721 78.5925 10.747 78.6965 10.799C78.8005 10.851 78.8698 10.916 78.9045 10.994C78.9391 11.072 78.9565 11.15 78.9565 11.228C78.9651 11.306 78.9738 11.3667 78.9825 11.41L78.9305 11.826C78.9825 11.6873 79.0691 11.553 79.1905 11.423C79.3118 11.293 79.4591 11.176 79.6325 11.072C79.8058 10.9593 79.9921 10.8727 80.1915 10.812C80.3995 10.7427 80.6118 10.708 80.8285 10.708C81.2358 10.708 81.5998 10.7817 81.9205 10.929C82.2411 11.0763 82.5141 11.2843 82.7395 11.553C82.9735 11.8217 83.1511 12.1423 83.2725 12.515C83.3938 12.879 83.4545 13.2907 83.4545 13.75V16.337C83.4545 16.4843 83.4371 16.6187 83.4025 16.74C83.3765 16.8527 83.3115 16.9437 83.2075 17.013C83.1035 17.0823 82.9258 17.117 82.6745 17.117C82.4318 17.117 82.2541 17.078 82.1415 17C82.0288 16.9307 81.9595 16.8397 81.9335 16.727C81.9075 16.6057 81.8945 16.4713 81.8945 16.324V13.737C81.8945 13.425 81.8381 13.1563 81.7255 12.931C81.6215 12.7057 81.4655 12.5323 81.2575 12.411C81.0581 12.2897 80.8025 12.229 80.4905 12.229C80.1871 12.229 79.9228 12.294 79.6975 12.424C79.4721 12.5453 79.2988 12.7187 79.1775 12.944C79.0561 13.1693 78.9955 13.4337 78.9955 13.737V16.337C78.9955 16.4843 78.9825 16.6187 78.9565 16.74C78.9305 16.8527 78.8611 16.9437 78.7485 17.013C78.6445 17.0823 78.4668 17.117 78.2155 17.117ZM85.5549 17.13C85.3209 17.13 85.1475 17.091 85.0349 17.013C84.9222 16.9437 84.8529 16.8527 84.8269 16.74C84.8009 16.6187 84.7879 16.4843 84.7879 16.337V11.501C84.7879 11.3623 84.8009 11.2367 84.8269 11.124C84.8615 11.0027 84.9309 10.9073 85.0349 10.838C85.1475 10.7687 85.3252 10.734 85.5679 10.734C85.8105 10.734 85.9839 10.7687 86.0879 10.838C86.2005 10.9073 86.2699 11.0027 86.2959 11.124C86.3219 11.2453 86.3349 11.3797 86.3349 11.527V16.35C86.3349 16.4973 86.3219 16.6317 86.2959 16.753C86.2699 16.8657 86.2005 16.9567 86.0879 17.026C85.9839 17.0953 85.8062 17.13 85.5549 17.13ZM85.5549 9.473C85.3035 9.473 85.1172 9.43833 84.9959 9.369C84.8832 9.291 84.8095 9.187 84.7749 9.057C84.7489 8.927 84.7359 8.784 84.7359 8.628C84.7359 8.46333 84.7489 8.32033 84.7749 8.199C84.8095 8.07767 84.8875 7.98233 85.0089 7.913C85.1302 7.835 85.3165 7.796 85.5679 7.796C85.8279 7.796 86.0142 7.835 86.1269 7.913C86.2395 7.991 86.3132 8.095 86.3479 8.225C86.3825 8.34633 86.3999 8.48933 86.3999 8.654C86.3999 8.80133 86.3825 8.94 86.3479 9.07C86.3132 9.2 86.2395 9.29967 86.1269 9.369C86.0142 9.43833 85.8235 9.473 85.5549 9.473ZM91.0461 17.039C90.6214 17.039 90.2401 16.961 89.9021 16.805C89.5727 16.6403 89.2911 16.415 89.0571 16.129C88.8317 15.8343 88.6584 15.4963 88.5371 15.115C88.4244 14.7337 88.3681 14.322 88.3681 13.88C88.3767 13.438 88.4417 13.0263 88.5631 12.645C88.6844 12.255 88.8577 11.917 89.0831 11.631C89.3171 11.345 89.5987 11.1197 89.9281 10.955C90.2574 10.7903 90.6301 10.708 91.0461 10.708C91.4447 10.708 91.8174 10.7903 92.1641 10.955C92.5194 11.1197 92.8314 11.3493 93.1001 11.644C93.3774 11.9387 93.5941 12.281 93.7501 12.671C93.9061 13.0523 93.9841 13.464 93.9841 13.906C93.9841 14.3567 93.9061 14.7727 93.7501 15.154C93.5941 15.5353 93.3817 15.869 93.1131 16.155C92.8444 16.4323 92.5324 16.649 92.1771 16.805C91.8217 16.961 91.4447 17.039 91.0461 17.039ZM88.4461 19.743C88.2121 19.743 88.0387 19.7083 87.9261 19.639C87.8134 19.5697 87.7441 19.4787 87.7181 19.366C87.6921 19.2533 87.6791 19.1233 87.6791 18.976V11.501C87.6791 11.3537 87.6921 11.2237 87.7181 11.111C87.7441 10.9983 87.8091 10.9073 87.9131 10.838C88.0257 10.76 88.1991 10.721 88.4331 10.721C88.6584 10.721 88.8361 10.7557 88.9661 10.825C89.0961 10.8943 89.1827 11.0113 89.2261 11.176V18.963C89.2347 19.1103 89.2217 19.2403 89.1871 19.353C89.1611 19.4743 89.0917 19.5697 88.9791 19.639C88.8664 19.7083 88.6887 19.743 88.4461 19.743ZM90.8381 15.583C91.1414 15.583 91.4144 15.5137 91.6571 15.375C91.8997 15.2277 92.0904 15.0283 92.2291 14.777C92.3764 14.517 92.4501 14.2267 92.4501 13.906C92.4501 13.5767 92.3764 13.2863 92.2291 13.035C92.0904 12.7837 91.8997 12.5887 91.6571 12.45C91.4144 12.3027 91.1414 12.229 90.8381 12.229C90.5434 12.229 90.2747 12.3027 90.0321 12.45C89.7894 12.5973 89.5944 12.7967 89.4471 13.048C89.3084 13.2907 89.2391 13.5767 89.2391 13.906C89.2391 14.2267 89.3084 14.517 89.4471 14.777C89.5944 15.0283 89.7894 15.2277 90.0321 15.375C90.2747 15.5137 90.5434 15.583 90.8381 15.583ZM98.3713 17.039C97.9466 17.039 97.5653 16.961 97.2273 16.805C96.8979 16.6403 96.6163 16.415 96.3823 16.129C96.1569 15.8343 95.9836 15.4963 95.8623 15.115C95.7496 14.7337 95.6933 14.322 95.6933 13.88C95.7019 13.438 95.7669 13.0263 95.8883 12.645C96.0096 12.255 96.1829 11.917 96.4083 11.631C96.6423 11.345 96.9239 11.1197 97.2533 10.955C97.5826 10.7903 97.9553 10.708 98.3713 10.708C98.7699 10.708 99.1426 10.7903 99.4893 10.955C99.8446 11.1197 100.157 11.3493 100.425 11.644C100.703 11.9387 100.919 12.281 101.075 12.671C101.231 13.0523 101.309 13.464 101.309 13.906C101.309 14.3567 101.231 14.7727 101.075 15.154C100.919 15.5353 100.707 15.869 100.438 16.155C100.17 16.4323 99.8576 16.649 99.5023 16.805C99.1469 16.961 98.7699 17.039 98.3713 17.039ZM95.7713 19.743C95.5373 19.743 95.3639 19.7083 95.2513 19.639C95.1386 19.5697 95.0693 19.4787 95.0433 19.366C95.0173 19.2533 95.0043 19.1233 95.0043 18.976V11.501C95.0043 11.3537 95.0173 11.2237 95.0433 11.111C95.0693 10.9983 95.1343 10.9073 95.2383 10.838C95.3509 10.76 95.5243 10.721 95.7583 10.721C95.9836 10.721 96.1613 10.7557 96.2913 10.825C96.4213 10.8943 96.5079 11.0113 96.5513 11.176V18.963C96.5599 19.1103 96.5469 19.2403 96.5123 19.353C96.4863 19.4743 96.4169 19.5697 96.3043 19.639C96.1916 19.7083 96.0139 19.743 95.7713 19.743ZM98.1633 15.583C98.4666 15.583 98.7396 15.5137 98.9823 15.375C99.2249 15.2277 99.4156 15.0283 99.5543 14.777C99.7016 14.517 99.7753 14.2267 99.7753 13.906C99.7753 13.5767 99.7016 13.2863 99.5543 13.035C99.4156 12.7837 99.2249 12.5887 98.9823 12.45C98.7396 12.3027 98.4666 12.229 98.1633 12.229C97.8686 12.229 97.5999 12.3027 97.3573 12.45C97.1146 12.5973 96.9196 12.7967 96.7723 13.048C96.6336 13.2907 96.5643 13.5767 96.5643 13.906C96.5643 14.2267 96.6336 14.517 96.7723 14.777C96.9196 15.0283 97.1146 15.2277 97.3573 15.375C97.5999 15.5137 97.8686 15.583 98.1633 15.583ZM105.501 17.208C104.938 17.208 104.444 17.117 104.019 16.935C103.603 16.753 103.252 16.506 102.966 16.194C102.689 15.8733 102.477 15.518 102.329 15.128C102.191 14.7293 102.121 14.3177 102.121 13.893C102.121 13.269 102.264 12.7143 102.55 12.229C102.836 11.7437 103.231 11.3623 103.733 11.085C104.245 10.8077 104.83 10.669 105.488 10.669C105.956 10.669 106.368 10.7427 106.723 10.89C107.079 11.0373 107.373 11.2323 107.607 11.475C107.85 11.709 108.032 11.969 108.153 12.255C108.283 12.541 108.348 12.8183 108.348 13.087C108.348 13.5463 108.236 13.88 108.01 14.088C107.794 14.296 107.521 14.4 107.191 14.4H103.759C103.768 14.6947 103.859 14.9503 104.032 15.167C104.214 15.3837 104.44 15.5527 104.708 15.674C104.986 15.7867 105.267 15.843 105.553 15.843C105.77 15.843 105.961 15.83 106.125 15.804C106.299 15.778 106.446 15.7477 106.567 15.713C106.689 15.6697 106.793 15.6263 106.879 15.583C106.975 15.5397 107.061 15.5007 107.139 15.466C107.217 15.4313 107.291 15.4097 107.36 15.401C107.456 15.3923 107.551 15.414 107.646 15.466C107.742 15.518 107.82 15.609 107.88 15.739C107.932 15.8257 107.967 15.908 107.984 15.986C108.01 16.0553 108.023 16.1247 108.023 16.194C108.023 16.3673 107.919 16.532 107.711 16.688C107.503 16.8353 107.209 16.9567 106.827 17.052C106.455 17.156 106.013 17.208 105.501 17.208ZM103.759 13.477H106.424C106.572 13.477 106.684 13.4553 106.762 13.412C106.84 13.36 106.879 13.256 106.879 13.1C106.879 12.9007 106.819 12.723 106.697 12.567C106.576 12.4023 106.411 12.2767 106.203 12.19C105.995 12.0947 105.753 12.047 105.475 12.047C105.155 12.047 104.864 12.112 104.604 12.242C104.344 12.3633 104.136 12.5323 103.98 12.749C103.833 12.9657 103.759 13.2083 103.759 13.477ZM112.447 17.13C112.023 17.13 111.659 17.0867 111.355 17C111.052 16.9133 110.805 16.779 110.614 16.597C110.424 16.415 110.281 16.181 110.185 15.895C110.099 15.6003 110.055 15.2537 110.055 14.855V9.343C110.055 9.187 110.068 9.05267 110.094 8.94C110.129 8.82733 110.198 8.74067 110.302 8.68C110.415 8.61067 110.588 8.576 110.822 8.576C111.065 8.576 111.238 8.61067 111.342 8.68C111.455 8.74933 111.524 8.84467 111.55 8.966C111.585 9.07867 111.602 9.20433 111.602 9.343V14.803C111.602 14.985 111.615 15.1323 111.641 15.245C111.676 15.3577 111.724 15.4443 111.784 15.505C111.854 15.557 111.94 15.596 112.044 15.622C112.157 15.6393 112.291 15.648 112.447 15.648C112.612 15.648 112.751 15.661 112.863 15.687C112.985 15.713 113.076 15.778 113.136 15.882C113.197 15.9773 113.227 16.1377 113.227 16.363C113.227 16.6057 113.188 16.7833 113.11 16.896C113.041 17 112.946 17.065 112.824 17.091C112.712 17.117 112.586 17.13 112.447 17.13ZM109.522 10.851L110.861 10.864L112.655 10.812C112.803 10.812 112.933 10.8293 113.045 10.864C113.167 10.89 113.262 10.9593 113.331 11.072C113.401 11.176 113.435 11.3493 113.435 11.592C113.435 11.8173 113.401 11.9863 113.331 12.099C113.262 12.2117 113.171 12.2853 113.058 12.32C112.946 12.346 112.816 12.359 112.668 12.359L110.926 12.333L109.483 12.346C109.267 12.3373 109.115 12.2767 109.028 12.164C108.95 12.0427 108.911 11.8477 108.911 11.579C108.911 11.3277 108.959 11.1457 109.054 11.033C109.158 10.9117 109.314 10.851 109.522 10.851ZM116.628 17.208C116.402 17.208 116.164 17.182 115.913 17.13C115.661 17.0867 115.419 17.0217 115.185 16.935C114.951 16.8397 114.747 16.7313 114.574 16.61C114.409 16.48 114.305 16.337 114.262 16.181C114.227 16.0943 114.214 16.012 114.223 15.934C114.231 15.8473 114.257 15.7607 114.301 15.674C114.344 15.5787 114.409 15.4833 114.496 15.388C114.574 15.2927 114.652 15.2407 114.73 15.232C114.816 15.2147 114.925 15.2407 115.055 15.31C115.167 15.3533 115.289 15.4097 115.419 15.479C115.557 15.5483 115.696 15.6177 115.835 15.687C115.982 15.7563 116.129 15.8127 116.277 15.856C116.433 15.8993 116.584 15.921 116.732 15.921C117.052 15.921 117.308 15.869 117.499 15.765C117.689 15.6523 117.785 15.4963 117.785 15.297C117.785 15.1843 117.754 15.0847 117.694 14.998C117.633 14.9113 117.551 14.842 117.447 14.79C117.351 14.7293 117.234 14.6773 117.096 14.634C116.966 14.582 116.823 14.5387 116.667 14.504C116.519 14.4607 116.363 14.413 116.199 14.361C115.982 14.3003 115.765 14.2267 115.549 14.14C115.332 14.0533 115.137 13.9407 114.964 13.802C114.799 13.6633 114.665 13.49 114.561 13.282C114.457 13.074 114.405 12.814 114.405 12.502C114.405 12.112 114.496 11.7827 114.678 11.514C114.868 11.2367 115.141 11.0243 115.497 10.877C115.852 10.7297 116.281 10.656 116.784 10.656C116.957 10.656 117.122 10.669 117.278 10.695C117.442 10.721 117.598 10.76 117.746 10.812C117.902 10.8553 118.049 10.9117 118.188 10.981C118.335 11.0503 118.474 11.1283 118.604 11.215C118.82 11.3363 118.933 11.4793 118.942 11.644C118.95 11.8 118.89 11.969 118.76 12.151C118.664 12.2723 118.569 12.359 118.474 12.411C118.378 12.4543 118.279 12.4543 118.175 12.411C118.036 12.3417 117.884 12.268 117.72 12.19C117.564 12.1033 117.399 12.0297 117.226 11.969C117.061 11.9083 116.888 11.878 116.706 11.878C116.532 11.878 116.376 11.904 116.238 11.956C116.099 12.008 115.995 12.0817 115.926 12.177C115.856 12.2723 115.822 12.385 115.822 12.515C115.822 12.6363 115.856 12.736 115.926 12.814C115.995 12.892 116.086 12.957 116.199 13.009C116.311 13.061 116.446 13.1087 116.602 13.152C116.758 13.1867 116.922 13.2213 117.096 13.256C117.338 13.308 117.585 13.373 117.837 13.451C118.088 13.529 118.318 13.6373 118.526 13.776C118.742 13.9147 118.916 14.101 119.046 14.335C119.176 14.5603 119.241 14.855 119.241 15.219C119.241 15.8517 119.007 16.3413 118.539 16.688C118.079 17.0347 117.442 17.208 116.628 17.208Z" fill="white"/>
</svg>
