<svg width="119" height="25" viewBox="0 0 119 25" fill="none" xmlns="http://www.w3.org/2000/svg">
<path d="M21.4 5.53334C22.6519 5.53334 23.6667 4.51849 23.6667 3.26667C23.6667 2.01482 22.6519 1 21.4 1C20.1482 1 19.1334 2.01482 19.1334 3.26667C19.1334 4.51849 20.1482 5.53334 21.4 5.53334Z" fill="#7E2FFF" stroke="black" stroke-width="1.33" stroke-linejoin="round"/>
<path d="M12.3333 14.6C13.5852 14.6 14.6 13.5852 14.6 12.3333C14.6 11.0815 13.5852 10.0667 12.3333 10.0667C11.0815 10.0667 10.0667 11.0815 10.0667 12.3333C10.0667 13.5852 11.0815 14.6 12.3333 14.6Z" fill="#7E2FFF" stroke="black" stroke-width="1.33" stroke-linejoin="round"/>
<path d="M21.4 23.6667C22.6519 23.6667 23.6667 22.6519 23.6667 21.4C23.6667 20.1482 22.6519 19.1334 21.4 19.1334C20.1482 19.1334 19.1334 20.1482 19.1334 21.4C19.1334 22.6519 20.1482 23.6667 21.4 23.6667Z" fill="#7E2FFF" stroke="black" stroke-width="1.33" stroke-linejoin="round"/>
<path d="M3.26667 5.53334C4.51849 5.53334 5.53334 4.51849 5.53334 3.26667C5.53334 2.01482 4.51849 1 3.26667 1C2.01482 1 1 2.01482 1 3.26667C1 4.51849 2.01482 5.53334 3.26667 5.53334Z" fill="#7E2FFF" stroke="black" stroke-width="1.33" stroke-linejoin="round"/>
<path d="M3.26667 23.6667C4.51849 23.6667 5.53334 22.6519 5.53334 21.4C5.53334 20.1482 4.51849 19.1334 3.26667 19.1334C2.01482 19.1334 1 20.1482 1 21.4C1 22.6519 2.01482 23.6667 3.26667 23.6667Z" fill="#7E2FFF" stroke="black" stroke-width="1.33" stroke-linejoin="round"/>
<path d="M10.0667 21.4H14.6H10.0667Z" fill="#7E2FFF"/>
<path d="M10.0667 21.4H14.6" stroke="black" stroke-width="1.33" stroke-linecap="round" stroke-linejoin="round"/>
<path d="M10.0667 3.26666H14.6H10.0667Z" fill="#7E2FFF"/>
<path d="M10.0667 3.26666H14.6" stroke="black" stroke-width="1.33" stroke-linecap="round" stroke-linejoin="round"/>
<path d="M3.26669 10.0667V14.6V10.0667Z" fill="#7E2FFF"/>
<path d="M3.26669 10.0667V14.6" stroke="black" stroke-width="1.33" stroke-linecap="round" stroke-linejoin="round"/>
<path d="M21.4 10.0667V14.6V10.0667Z" fill="#7E2FFF"/>
<path d="M21.4 10.0667V14.6" stroke="black" stroke-width="1.33" stroke-linecap="round" stroke-linejoin="round"/>
<path d="M33.096 17.182C32.6713 17.182 32.2423 17.1213 31.809 17C31.3757 16.87 30.9597 16.6793 30.561 16.428C30.1623 16.168 29.807 15.8517 29.495 15.479C29.1917 15.0977 28.949 14.66 28.767 14.166C28.585 13.6633 28.494 13.1087 28.494 12.502C28.494 11.904 28.585 11.3667 28.767 10.89C28.949 10.4047 29.1917 9.98 29.495 9.616C29.807 9.252 30.158 8.94867 30.548 8.706C30.9467 8.46333 31.3627 8.28133 31.796 8.16C32.238 8.03 32.6757 7.96067 33.109 7.952C33.551 7.952 33.9323 7.99967 34.253 8.095C34.5737 8.19033 34.8337 8.29433 35.033 8.407C35.2323 8.511 35.3667 8.58467 35.436 8.628C35.5747 8.71467 35.7047 8.81433 35.826 8.927C35.956 9.031 36.0253 9.161 36.034 9.317C36.0427 9.421 36.0297 9.51633 35.995 9.603C35.9603 9.681 35.9127 9.76333 35.852 9.85C35.748 9.99733 35.644 10.1057 35.54 10.175C35.436 10.2443 35.332 10.279 35.228 10.279C35.1327 10.279 35.0417 10.253 34.955 10.201C34.877 10.149 34.7773 10.084 34.656 10.006C34.604 9.97133 34.5087 9.91933 34.37 9.85C34.24 9.772 34.0623 9.70267 33.837 9.642C33.6203 9.58133 33.356 9.551 33.044 9.551C32.6713 9.551 32.3073 9.616 31.952 9.746C31.5967 9.876 31.276 10.071 30.99 10.331C30.7127 10.5823 30.4917 10.8987 30.327 11.28C30.1623 11.6527 30.08 12.0817 30.08 12.567C30.08 13.0523 30.1623 13.4857 30.327 13.867C30.4917 14.2397 30.7127 14.556 30.99 14.816C31.276 15.0673 31.5967 15.258 31.952 15.388C32.3073 15.518 32.6713 15.583 33.044 15.583C33.3387 15.583 33.59 15.557 33.798 15.505C34.0147 15.4443 34.1967 15.375 34.344 15.297C34.5 15.2103 34.617 15.1453 34.695 15.102C34.7903 15.0413 34.8813 14.985 34.968 14.933C35.0547 14.881 35.1457 14.855 35.241 14.855C35.345 14.855 35.4447 14.8897 35.54 14.959C35.644 15.0283 35.7437 15.141 35.839 15.297C35.8997 15.3923 35.9473 15.4833 35.982 15.57C36.0167 15.6567 36.0297 15.7477 36.021 15.843C36.0123 15.999 35.943 16.1333 35.813 16.246C35.6917 16.35 35.5617 16.441 35.423 16.519C35.3537 16.5623 35.2193 16.6403 35.02 16.753C34.8293 16.857 34.5737 16.9523 34.253 17.039C33.9323 17.1343 33.5467 17.182 33.096 17.182ZM40.1846 17.208C39.7686 17.208 39.3612 17.13 38.9626 16.974C38.5726 16.8093 38.2172 16.5797 37.8966 16.285C37.5846 15.9903 37.3332 15.6437 37.1426 15.245C36.9606 14.8463 36.8696 14.4087 36.8696 13.932C36.8696 13.4727 36.9562 13.0437 37.1296 12.645C37.3029 12.2463 37.5412 11.8953 37.8446 11.592C38.1479 11.2887 38.4946 11.0547 38.8846 10.89C39.2832 10.7167 39.7079 10.63 40.1586 10.63C40.7652 10.63 41.3156 10.7773 41.8096 11.072C42.3036 11.358 42.6979 11.748 42.9926 12.242C43.2872 12.736 43.4346 13.295 43.4346 13.919C43.4346 14.413 43.3436 14.8637 43.1616 15.271C42.9796 15.6697 42.7326 16.0163 42.4206 16.311C42.1086 16.597 41.7576 16.818 41.3676 16.974C40.9862 17.13 40.5919 17.208 40.1846 17.208ZM40.1586 15.674C40.4446 15.674 40.7176 15.6047 40.9776 15.466C41.2462 15.3187 41.4629 15.1107 41.6276 14.842C41.8009 14.5733 41.8876 14.257 41.8876 13.893C41.8876 13.555 41.8096 13.256 41.6536 12.996C41.5062 12.736 41.3026 12.5323 41.0426 12.385C40.7826 12.2377 40.4836 12.164 40.1456 12.164C39.8249 12.164 39.5346 12.242 39.2746 12.398C39.0146 12.5453 38.8066 12.7533 38.6506 13.022C38.5032 13.282 38.4296 13.5767 38.4296 13.906C38.4296 14.27 38.5119 14.5863 38.6766 14.855C38.8412 15.115 39.0536 15.3187 39.3136 15.466C39.5822 15.6047 39.8639 15.674 40.1586 15.674ZM47.2123 17.117C46.8136 17.117 46.4366 17.0347 46.0813 16.87C45.7259 16.7053 45.4139 16.48 45.1453 16.194C44.8766 15.8993 44.6643 15.557 44.5083 15.167C44.3523 14.7683 44.2743 14.3437 44.2743 13.893C44.2743 13.4597 44.3523 13.0523 44.5083 12.671C44.6643 12.281 44.8766 11.943 45.1453 11.657C45.4226 11.3623 45.7389 11.1327 46.0943 10.968C46.4496 10.8033 46.8223 10.721 47.2123 10.721C47.6283 10.721 48.0009 10.8033 48.3303 10.968C48.6596 11.1327 48.9369 11.3623 49.1623 11.657C49.3963 11.943 49.5739 12.281 49.6953 12.671C49.8166 13.0523 49.8816 13.464 49.8903 13.906C49.8903 14.348 49.8296 14.764 49.7083 15.154C49.5956 15.5353 49.4223 15.8733 49.1883 16.168C48.9629 16.4627 48.6813 16.6967 48.3433 16.87C48.0139 17.0347 47.6369 17.117 47.2123 17.117ZM47.4203 15.596C47.7236 15.596 47.9923 15.5267 48.2263 15.388C48.4689 15.2407 48.6596 15.0413 48.7983 14.79C48.9456 14.5387 49.0193 14.2527 49.0193 13.932C49.0193 13.6027 48.9456 13.3123 48.7983 13.061C48.6596 12.8097 48.4689 12.6103 48.2263 12.463C47.9923 12.3157 47.7236 12.242 47.4203 12.242C47.1169 12.242 46.8439 12.3157 46.6013 12.463C46.3586 12.6017 46.1636 12.801 46.0163 13.061C45.8776 13.3123 45.8083 13.6027 45.8083 13.932C45.8083 14.2527 45.8776 14.5387 46.0163 14.79C46.1636 15.0413 46.3586 15.2407 46.6013 15.388C46.8526 15.5267 47.1256 15.596 47.4203 15.596ZM49.8253 17.117C49.5826 17.117 49.4049 17.078 49.2923 17C49.1796 16.9133 49.1059 16.779 49.0713 16.597V8.589C49.0713 8.44167 49.0799 8.31167 49.0973 8.199C49.1233 8.07767 49.1883 7.98233 49.2923 7.913C49.4049 7.835 49.5783 7.796 49.8123 7.796C50.0636 7.796 50.2413 7.83067 50.3453 7.9C50.4493 7.96933 50.5143 8.06467 50.5403 8.186C50.5749 8.29867 50.5923 8.42867 50.5923 8.576V16.324C50.5923 16.4713 50.5793 16.6057 50.5533 16.727C50.5273 16.8483 50.4579 16.9437 50.3453 17.013C50.2413 17.0823 50.0679 17.117 49.8253 17.117ZM55.0278 17.208C54.4645 17.208 53.9705 17.117 53.5458 16.935C53.1298 16.753 52.7788 16.506 52.4928 16.194C52.2155 15.8733 52.0031 15.518 51.8558 15.128C51.7171 14.7293 51.6478 14.3177 51.6478 13.893C51.6478 13.269 51.7908 12.7143 52.0768 12.229C52.3628 11.7437 52.7571 11.3623 53.2598 11.085C53.7711 10.8077 54.3561 10.669 55.0148 10.669C55.4828 10.669 55.8945 10.7427 56.2498 10.89C56.6051 11.0373 56.8998 11.2323 57.1338 11.475C57.3765 11.709 57.5585 11.969 57.6798 12.255C57.8098 12.541 57.8748 12.8183 57.8748 13.087C57.8748 13.5463 57.7621 13.88 57.5368 14.088C57.3201 14.296 57.0471 14.4 56.7178 14.4H53.2858C53.2945 14.6947 53.3855 14.9503 53.5588 15.167C53.7408 15.3837 53.9661 15.5527 54.2348 15.674C54.5121 15.7867 54.7938 15.843 55.0798 15.843C55.2965 15.843 55.4871 15.83 55.6518 15.804C55.8251 15.778 55.9725 15.7477 56.0938 15.713C56.2151 15.6697 56.3191 15.6263 56.4058 15.583C56.5011 15.5397 56.5878 15.5007 56.6658 15.466C56.7438 15.4313 56.8175 15.4097 56.8868 15.401C56.9821 15.3923 57.0775 15.414 57.1728 15.466C57.2681 15.518 57.3461 15.609 57.4068 15.739C57.4588 15.8257 57.4935 15.908 57.5108 15.986C57.5368 16.0553 57.5498 16.1247 57.5498 16.194C57.5498 16.3673 57.4458 16.532 57.2378 16.688C57.0298 16.8353 56.7351 16.9567 56.3538 17.052C55.9811 17.156 55.5391 17.208 55.0278 17.208ZM53.2858 13.477H55.9508C56.0981 13.477 56.2108 13.4553 56.2888 13.412C56.3668 13.36 56.4058 13.256 56.4058 13.1C56.4058 12.9007 56.3451 12.723 56.2238 12.567C56.1025 12.4023 55.9378 12.2767 55.7298 12.19C55.5218 12.0947 55.2791 12.047 55.0018 12.047C54.6811 12.047 54.3908 12.112 54.1308 12.242C53.8708 12.3633 53.6628 12.5323 53.5068 12.749C53.3595 12.9657 53.2858 13.2083 53.2858 13.477ZM59.3056 19.197C59.193 19.197 59.089 19.184 58.9936 19.158C58.8983 19.132 58.8203 19.0713 58.7596 18.976C58.7076 18.8807 58.6816 18.7333 58.6816 18.534C58.6816 18.3173 58.7076 18.1613 58.7596 18.066C58.8203 17.9707 58.8983 17.91 58.9936 17.884C59.089 17.858 59.1886 17.845 59.2926 17.845H67.6256C67.7383 17.845 67.8423 17.858 67.9376 17.884C68.033 17.91 68.1066 17.9707 68.1586 18.066C68.2106 18.1613 68.2366 18.3173 68.2366 18.534C68.2366 18.742 68.2063 18.8893 68.1456 18.976C68.0936 19.0713 68.02 19.132 67.9246 19.158C67.8293 19.184 67.7253 19.197 67.6126 19.197H59.3056ZM72.148 17.247C71.758 17.247 71.4027 17.1993 71.082 17.104C70.77 17.0087 70.4927 16.8873 70.25 16.74C70.016 16.5927 69.8167 16.441 69.652 16.285C69.4873 16.129 69.366 15.986 69.288 15.856C69.1753 15.7 69.1017 15.5613 69.067 15.44C69.0323 15.3187 69.041 15.2017 69.093 15.089C69.1537 14.9677 69.262 14.842 69.418 14.712C69.574 14.5733 69.717 14.504 69.847 14.504C69.9857 14.4953 70.1157 14.5343 70.237 14.621C70.367 14.7077 70.4927 14.829 70.614 14.985C70.822 15.2623 71.056 15.4617 71.316 15.583C71.576 15.6957 71.836 15.752 72.096 15.752C72.434 15.752 72.7287 15.7087 72.98 15.622C73.2313 15.5267 73.4263 15.388 73.565 15.206C73.7123 15.024 73.786 14.79 73.786 14.504C73.786 14.27 73.7123 14.0793 73.565 13.932C73.4263 13.776 73.24 13.646 73.006 13.542C72.772 13.4293 72.5077 13.3297 72.213 13.243C71.927 13.1477 71.6367 13.0437 71.342 12.931C71.134 12.8617 70.926 12.7793 70.718 12.684C70.51 12.58 70.315 12.463 70.133 12.333C69.9597 12.203 69.8037 12.0513 69.665 11.878C69.535 11.696 69.431 11.488 69.353 11.254C69.275 11.02 69.236 10.747 69.236 10.435C69.236 9.941 69.3573 9.50767 69.6 9.135C69.8427 8.75367 70.1807 8.45467 70.614 8.238C71.0473 8.01267 71.5413 7.9 72.096 7.9C72.4513 7.9 72.7677 7.93467 73.045 8.004C73.331 8.06467 73.5737 8.147 73.773 8.251C73.981 8.34633 74.15 8.446 74.28 8.55C74.4187 8.64533 74.5183 8.72767 74.579 8.797C74.7783 8.99633 74.8867 9.16533 74.904 9.304C74.93 9.434 74.852 9.61167 74.67 9.837C74.488 10.071 74.3103 10.201 74.137 10.227C73.9723 10.2443 73.786 10.175 73.578 10.019C73.4393 9.87167 73.3007 9.75467 73.162 9.668C73.0233 9.57267 72.8673 9.50333 72.694 9.46C72.5293 9.41667 72.3257 9.395 72.083 9.395C71.9097 9.395 71.7407 9.421 71.576 9.473C71.42 9.51633 71.2857 9.58567 71.173 9.681C71.0603 9.76767 70.9693 9.876 70.9 10.006C70.8393 10.136 70.809 10.2833 70.809 10.448C70.809 10.6733 70.8697 10.8597 70.991 11.007C71.121 11.1457 71.2943 11.2627 71.511 11.358C71.7277 11.4447 71.9703 11.527 72.239 11.605C72.5077 11.683 72.7807 11.7653 73.058 11.852C73.344 11.9473 73.6257 12.06 73.903 12.19C74.1803 12.32 74.4273 12.4847 74.644 12.684C74.8607 12.8747 75.034 13.1173 75.164 13.412C75.294 13.698 75.359 14.049 75.359 14.465C75.359 14.9417 75.268 15.3577 75.086 15.713C74.904 16.0683 74.657 16.3587 74.345 16.584C74.033 16.8093 73.6863 16.974 73.305 17.078C72.9237 17.1907 72.538 17.247 72.148 17.247ZM77.2155 17.117C76.9815 17.117 76.8081 17.078 76.6955 17C76.5915 16.9307 76.5265 16.8397 76.5005 16.727C76.4745 16.6057 76.4615 16.4713 76.4615 16.324V11.462C76.4615 11.3233 76.4745 11.1977 76.5005 11.085C76.5265 10.9723 76.5958 10.8857 76.7085 10.825C76.8211 10.7557 76.9945 10.721 77.2285 10.721C77.4365 10.721 77.5925 10.747 77.6965 10.799C77.8005 10.851 77.8698 10.916 77.9045 10.994C77.9391 11.072 77.9565 11.15 77.9565 11.228C77.9651 11.306 77.9738 11.3667 77.9825 11.41L77.9305 11.826C77.9825 11.6873 78.0691 11.553 78.1905 11.423C78.3118 11.293 78.4591 11.176 78.6325 11.072C78.8058 10.9593 78.9921 10.8727 79.1915 10.812C79.3995 10.7427 79.6118 10.708 79.8285 10.708C80.2358 10.708 80.5998 10.7817 80.9205 10.929C81.2411 11.0763 81.5141 11.2843 81.7395 11.553C81.9735 11.8217 82.1511 12.1423 82.2725 12.515C82.3938 12.879 82.4545 13.2907 82.4545 13.75V16.337C82.4545 16.4843 82.4371 16.6187 82.4025 16.74C82.3765 16.8527 82.3115 16.9437 82.2075 17.013C82.1035 17.0823 81.9258 17.117 81.6745 17.117C81.4318 17.117 81.2541 17.078 81.1415 17C81.0288 16.9307 80.9595 16.8397 80.9335 16.727C80.9075 16.6057 80.8945 16.4713 80.8945 16.324V13.737C80.8945 13.425 80.8381 13.1563 80.7255 12.931C80.6215 12.7057 80.4655 12.5323 80.2575 12.411C80.0581 12.2897 79.8025 12.229 79.4905 12.229C79.1871 12.229 78.9228 12.294 78.6975 12.424C78.4721 12.5453 78.2988 12.7187 78.1775 12.944C78.0561 13.1693 77.9955 13.4337 77.9955 13.737V16.337C77.9955 16.4843 77.9825 16.6187 77.9565 16.74C77.9305 16.8527 77.8611 16.9437 77.7485 17.013C77.6445 17.0823 77.4668 17.117 77.2155 17.117ZM84.5549 17.13C84.3209 17.13 84.1475 17.091 84.0349 17.013C83.9222 16.9437 83.8529 16.8527 83.8269 16.74C83.8009 16.6187 83.7879 16.4843 83.7879 16.337V11.501C83.7879 11.3623 83.8009 11.2367 83.8269 11.124C83.8615 11.0027 83.9309 10.9073 84.0349 10.838C84.1475 10.7687 84.3252 10.734 84.5679 10.734C84.8105 10.734 84.9839 10.7687 85.0879 10.838C85.2005 10.9073 85.2699 11.0027 85.2959 11.124C85.3219 11.2453 85.3349 11.3797 85.3349 11.527V16.35C85.3349 16.4973 85.3219 16.6317 85.2959 16.753C85.2699 16.8657 85.2005 16.9567 85.0879 17.026C84.9839 17.0953 84.8062 17.13 84.5549 17.13ZM84.5549 9.473C84.3035 9.473 84.1172 9.43833 83.9959 9.369C83.8832 9.291 83.8095 9.187 83.7749 9.057C83.7489 8.927 83.7359 8.784 83.7359 8.628C83.7359 8.46333 83.7489 8.32033 83.7749 8.199C83.8095 8.07767 83.8875 7.98233 84.0089 7.913C84.1302 7.835 84.3165 7.796 84.5679 7.796C84.8279 7.796 85.0142 7.835 85.1269 7.913C85.2395 7.991 85.3132 8.095 85.3479 8.225C85.3825 8.34633 85.3999 8.48933 85.3999 8.654C85.3999 8.80133 85.3825 8.94 85.3479 9.07C85.3132 9.2 85.2395 9.29967 85.1269 9.369C85.0142 9.43833 84.8235 9.473 84.5549 9.473ZM90.0461 17.039C89.6214 17.039 89.2401 16.961 88.9021 16.805C88.5727 16.6403 88.2911 16.415 88.0571 16.129C87.8317 15.8343 87.6584 15.4963 87.5371 15.115C87.4244 14.7337 87.3681 14.322 87.3681 13.88C87.3767 13.438 87.4417 13.0263 87.5631 12.645C87.6844 12.255 87.8577 11.917 88.0831 11.631C88.3171 11.345 88.5987 11.1197 88.9281 10.955C89.2574 10.7903 89.6301 10.708 90.0461 10.708C90.4447 10.708 90.8174 10.7903 91.1641 10.955C91.5194 11.1197 91.8314 11.3493 92.1001 11.644C92.3774 11.9387 92.5941 12.281 92.7501 12.671C92.9061 13.0523 92.9841 13.464 92.9841 13.906C92.9841 14.3567 92.9061 14.7727 92.7501 15.154C92.5941 15.5353 92.3817 15.869 92.1131 16.155C91.8444 16.4323 91.5324 16.649 91.1771 16.805C90.8217 16.961 90.4447 17.039 90.0461 17.039ZM87.4461 19.743C87.2121 19.743 87.0387 19.7083 86.9261 19.639C86.8134 19.5697 86.7441 19.4787 86.7181 19.366C86.6921 19.2533 86.6791 19.1233 86.6791 18.976V11.501C86.6791 11.3537 86.6921 11.2237 86.7181 11.111C86.7441 10.9983 86.8091 10.9073 86.9131 10.838C87.0257 10.76 87.1991 10.721 87.4331 10.721C87.6584 10.721 87.8361 10.7557 87.9661 10.825C88.0961 10.8943 88.1827 11.0113 88.2261 11.176V18.963C88.2347 19.1103 88.2217 19.2403 88.1871 19.353C88.1611 19.4743 88.0917 19.5697 87.9791 19.639C87.8664 19.7083 87.6887 19.743 87.4461 19.743ZM89.8381 15.583C90.1414 15.583 90.4144 15.5137 90.6571 15.375C90.8997 15.2277 91.0904 15.0283 91.2291 14.777C91.3764 14.517 91.4501 14.2267 91.4501 13.906C91.4501 13.5767 91.3764 13.2863 91.2291 13.035C91.0904 12.7837 90.8997 12.5887 90.6571 12.45C90.4144 12.3027 90.1414 12.229 89.8381 12.229C89.5434 12.229 89.2747 12.3027 89.0321 12.45C88.7894 12.5973 88.5944 12.7967 88.4471 13.048C88.3084 13.2907 88.2391 13.5767 88.2391 13.906C88.2391 14.2267 88.3084 14.517 88.4471 14.777C88.5944 15.0283 88.7894 15.2277 89.0321 15.375C89.2747 15.5137 89.5434 15.583 89.8381 15.583ZM97.3713 17.039C96.9466 17.039 96.5653 16.961 96.2273 16.805C95.8979 16.6403 95.6163 16.415 95.3823 16.129C95.1569 15.8343 94.9836 15.4963 94.8623 15.115C94.7496 14.7337 94.6933 14.322 94.6933 13.88C94.7019 13.438 94.7669 13.0263 94.8883 12.645C95.0096 12.255 95.1829 11.917 95.4083 11.631C95.6423 11.345 95.9239 11.1197 96.2533 10.955C96.5826 10.7903 96.9553 10.708 97.3713 10.708C97.7699 10.708 98.1426 10.7903 98.4893 10.955C98.8446 11.1197 99.1566 11.3493 99.4253 11.644C99.7026 11.9387 99.9193 12.281 100.075 12.671C100.231 13.0523 100.309 13.464 100.309 13.906C100.309 14.3567 100.231 14.7727 100.075 15.154C99.9193 15.5353 99.7069 15.869 99.4383 16.155C99.1696 16.4323 98.8576 16.649 98.5023 16.805C98.1469 16.961 97.7699 17.039 97.3713 17.039ZM94.7713 19.743C94.5373 19.743 94.3639 19.7083 94.2513 19.639C94.1386 19.5697 94.0693 19.4787 94.0433 19.366C94.0173 19.2533 94.0043 19.1233 94.0043 18.976V11.501C94.0043 11.3537 94.0173 11.2237 94.0433 11.111C94.0693 10.9983 94.1343 10.9073 94.2383 10.838C94.3509 10.76 94.5243 10.721 94.7583 10.721C94.9836 10.721 95.1613 10.7557 95.2913 10.825C95.4213 10.8943 95.5079 11.0113 95.5513 11.176V18.963C95.5599 19.1103 95.5469 19.2403 95.5123 19.353C95.4863 19.4743 95.4169 19.5697 95.3043 19.639C95.1916 19.7083 95.0139 19.743 94.7713 19.743ZM97.1633 15.583C97.4666 15.583 97.7396 15.5137 97.9823 15.375C98.2249 15.2277 98.4156 15.0283 98.5543 14.777C98.7016 14.517 98.7753 14.2267 98.7753 13.906C98.7753 13.5767 98.7016 13.2863 98.5543 13.035C98.4156 12.7837 98.2249 12.5887 97.9823 12.45C97.7396 12.3027 97.4666 12.229 97.1633 12.229C96.8686 12.229 96.5999 12.3027 96.3573 12.45C96.1146 12.5973 95.9196 12.7967 95.7723 13.048C95.6336 13.2907 95.5643 13.5767 95.5643 13.906C95.5643 14.2267 95.6336 14.517 95.7723 14.777C95.9196 15.0283 96.1146 15.2277 96.3573 15.375C96.5999 15.5137 96.8686 15.583 97.1633 15.583ZM104.501 17.208C103.938 17.208 103.444 17.117 103.019 16.935C102.603 16.753 102.252 16.506 101.966 16.194C101.689 15.8733 101.477 15.518 101.329 15.128C101.191 14.7293 101.121 14.3177 101.121 13.893C101.121 13.269 101.264 12.7143 101.55 12.229C101.836 11.7437 102.231 11.3623 102.733 11.085C103.245 10.8077 103.83 10.669 104.488 10.669C104.956 10.669 105.368 10.7427 105.723 10.89C106.079 11.0373 106.373 11.2323 106.607 11.475C106.85 11.709 107.032 11.969 107.153 12.255C107.283 12.541 107.348 12.8183 107.348 13.087C107.348 13.5463 107.236 13.88 107.01 14.088C106.794 14.296 106.521 14.4 106.191 14.4H102.759C102.768 14.6947 102.859 14.9503 103.032 15.167C103.214 15.3837 103.44 15.5527 103.708 15.674C103.986 15.7867 104.267 15.843 104.553 15.843C104.77 15.843 104.961 15.83 105.125 15.804C105.299 15.778 105.446 15.7477 105.567 15.713C105.689 15.6697 105.793 15.6263 105.879 15.583C105.975 15.5397 106.061 15.5007 106.139 15.466C106.217 15.4313 106.291 15.4097 106.36 15.401C106.456 15.3923 106.551 15.414 106.646 15.466C106.742 15.518 106.82 15.609 106.88 15.739C106.932 15.8257 106.967 15.908 106.984 15.986C107.01 16.0553 107.023 16.1247 107.023 16.194C107.023 16.3673 106.919 16.532 106.711 16.688C106.503 16.8353 106.209 16.9567 105.827 17.052C105.455 17.156 105.013 17.208 104.501 17.208ZM102.759 13.477H105.424C105.572 13.477 105.684 13.4553 105.762 13.412C105.84 13.36 105.879 13.256 105.879 13.1C105.879 12.9007 105.819 12.723 105.697 12.567C105.576 12.4023 105.411 12.2767 105.203 12.19C104.995 12.0947 104.753 12.047 104.475 12.047C104.155 12.047 103.864 12.112 103.604 12.242C103.344 12.3633 103.136 12.5323 102.98 12.749C102.833 12.9657 102.759 13.2083 102.759 13.477ZM111.447 17.13C111.023 17.13 110.659 17.0867 110.355 17C110.052 16.9133 109.805 16.779 109.614 16.597C109.424 16.415 109.281 16.181 109.185 15.895C109.099 15.6003 109.055 15.2537 109.055 14.855V9.343C109.055 9.187 109.068 9.05267 109.094 8.94C109.129 8.82733 109.198 8.74067 109.302 8.68C109.415 8.61067 109.588 8.576 109.822 8.576C110.065 8.576 110.238 8.61067 110.342 8.68C110.455 8.74933 110.524 8.84467 110.55 8.966C110.585 9.07867 110.602 9.20433 110.602 9.343V14.803C110.602 14.985 110.615 15.1323 110.641 15.245C110.676 15.3577 110.724 15.4443 110.784 15.505C110.854 15.557 110.94 15.596 111.044 15.622C111.157 15.6393 111.291 15.648 111.447 15.648C111.612 15.648 111.751 15.661 111.863 15.687C111.985 15.713 112.076 15.778 112.136 15.882C112.197 15.9773 112.227 16.1377 112.227 16.363C112.227 16.6057 112.188 16.7833 112.11 16.896C112.041 17 111.946 17.065 111.824 17.091C111.712 17.117 111.586 17.13 111.447 17.13ZM108.522 10.851L109.861 10.864L111.655 10.812C111.803 10.812 111.933 10.8293 112.045 10.864C112.167 10.89 112.262 10.9593 112.331 11.072C112.401 11.176 112.435 11.3493 112.435 11.592C112.435 11.8173 112.401 11.9863 112.331 12.099C112.262 12.2117 112.171 12.2853 112.058 12.32C111.946 12.346 111.816 12.359 111.668 12.359L109.926 12.333L108.483 12.346C108.267 12.3373 108.115 12.2767 108.028 12.164C107.95 12.0427 107.911 11.8477 107.911 11.579C107.911 11.3277 107.959 11.1457 108.054 11.033C108.158 10.9117 108.314 10.851 108.522 10.851ZM115.628 17.208C115.402 17.208 115.164 17.182 114.913 17.13C114.661 17.0867 114.419 17.0217 114.185 16.935C113.951 16.8397 113.747 16.7313 113.574 16.61C113.409 16.48 113.305 16.337 113.262 16.181C113.227 16.0943 113.214 16.012 113.223 15.934C113.231 15.8473 113.257 15.7607 113.301 15.674C113.344 15.5787 113.409 15.4833 113.496 15.388C113.574 15.2927 113.652 15.2407 113.73 15.232C113.816 15.2147 113.925 15.2407 114.055 15.31C114.167 15.3533 114.289 15.4097 114.419 15.479C114.557 15.5483 114.696 15.6177 114.835 15.687C114.982 15.7563 115.129 15.8127 115.277 15.856C115.433 15.8993 115.584 15.921 115.732 15.921C116.052 15.921 116.308 15.869 116.499 15.765C116.689 15.6523 116.785 15.4963 116.785 15.297C116.785 15.1843 116.754 15.0847 116.694 14.998C116.633 14.9113 116.551 14.842 116.447 14.79C116.351 14.7293 116.234 14.6773 116.096 14.634C115.966 14.582 115.823 14.5387 115.667 14.504C115.519 14.4607 115.363 14.413 115.199 14.361C114.982 14.3003 114.765 14.2267 114.549 14.14C114.332 14.0533 114.137 13.9407 113.964 13.802C113.799 13.6633 113.665 13.49 113.561 13.282C113.457 13.074 113.405 12.814 113.405 12.502C113.405 12.112 113.496 11.7827 113.678 11.514C113.868 11.2367 114.141 11.0243 114.497 10.877C114.852 10.7297 115.281 10.656 115.784 10.656C115.957 10.656 116.122 10.669 116.278 10.695C116.442 10.721 116.598 10.76 116.746 10.812C116.902 10.8553 117.049 10.9117 117.188 10.981C117.335 11.0503 117.474 11.1283 117.604 11.215C117.82 11.3363 117.933 11.4793 117.942 11.644C117.95 11.8 117.89 11.969 117.76 12.151C117.664 12.2723 117.569 12.359 117.474 12.411C117.378 12.4543 117.279 12.4543 117.175 12.411C117.036 12.3417 116.884 12.268 116.72 12.19C116.564 12.1033 116.399 12.0297 116.226 11.969C116.061 11.9083 115.888 11.878 115.706 11.878C115.532 11.878 115.376 11.904 115.238 11.956C115.099 12.008 114.995 12.0817 114.926 12.177C114.856 12.2723 114.822 12.385 114.822 12.515C114.822 12.6363 114.856 12.736 114.926 12.814C114.995 12.892 115.086 12.957 115.199 13.009C115.311 13.061 115.446 13.1087 115.602 13.152C115.758 13.1867 115.922 13.2213 116.096 13.256C116.338 13.308 116.585 13.373 116.837 13.451C117.088 13.529 117.318 13.6373 117.526 13.776C117.742 13.9147 117.916 14.101 118.046 14.335C118.176 14.5603 118.241 14.855 118.241 15.219C118.241 15.8517 118.007 16.3413 117.539 16.688C117.079 17.0347 116.442 17.208 115.628 17.208Z" fill="black"/>
</svg>
